<?xml version="1.0" encoding="UTF-8" standalone="no"?>
<svg
   xmlns:dc="http://purl.org/dc/elements/1.1/"
   xmlns:cc="http://creativecommons.org/ns#"
   xmlns:rdf="http://www.w3.org/1999/02/22-rdf-syntax-ns#"
   xmlns:svg="http://www.w3.org/2000/svg"
   xmlns="http://www.w3.org/2000/svg"
   xmlns:sodipodi="http://sodipodi.sourceforge.net/DTD/sodipodi-0.dtd"
   xmlns:inkscape="http://www.inkscape.org/namespaces/inkscape"
   width="433.39944"
   height="64.563332"
   viewBox="0 0 122.31495 18.221207"
   version="1.1"
   id="svg2"
   inkscape:version="0.48.3.1 r9886"
   sodipodi:docname="flightsOfIdeas.svg">
  <metadata
     id="metadata25">
    <rdf:RDF>
      <cc:Work
         rdf:about="">
        <dc:format>image/svg+xml</dc:format>
        <dc:type
           rdf:resource="http://purl.org/dc/dcmitype/StillImage" />
      </cc:Work>
    </rdf:RDF>
  </metadata>
  <defs
     id="defs23" />
  <sodipodi:namedview
     pagecolor="#ffffff"
     bordercolor="#666666"
     borderopacity="1"
     objecttolerance="10"
     gridtolerance="10"
     guidetolerance="10"
     inkscape:pageopacity="0"
     inkscape:pageshadow="2"
     inkscape:window-width="1855"
     inkscape:window-height="1056"
     id="namedview21"
     showgrid="false"
     inkscape:zoom="1.6101313"
     inkscape:cx="223.32949"
     inkscape:cy="-111.51032"
     inkscape:window-x="65"
     inkscape:window-y="24"
     inkscape:window-maximized="1"
     inkscape:current-layer="svg2"
     fit-margin-top="0"
     fit-margin-left="0"
     fit-margin-right="0"
     fit-margin-bottom="0" />
  <desc
     id="desc4">Output from Flights of Ideas SVG Sketchup Plugin</desc>
  <path
     inkscape:connector-curvature="0"
     id="face0-cut"
     style="fill:none;stroke:#000080;stroke-width:0.20000000000000001;stroke-linecap:round;stroke-linejoin:round;stroke-miterlimit:4;stroke-dasharray:none"
     d="m 20.112364,18.108085 20.001115,-4.3e-5 0,-8 10,0 0,8 9.999563,1.21e-4 0,-17.99999988 -60.00000017,0 0,17.99999988 9.99932217,-8.6e-5 3e-6,-8 9.999997,8e-6 0,8" />
  <path
     d="m 82.201259,18.108085 20.001101,-4.3e-5 0,-8 10,0 0,8 9.99955,1.21e-4 0,-17.99999988 -59.999973,0 0,17.99999988 9.999322,-8.5e-5 3e-6,-8 9.999997,7e-6 0,8"
     style="fill:none;stroke:#000080;stroke-width:0.20000000000000001;stroke-linecap:round;stroke-linejoin:round;stroke-miterlimit:4;stroke-dasharray:none"
     id="path4049"
     inkscape:connector-curvature="0" />
</svg>
