solid 120-channel device connector
facet normal -0.2588190451025179 -8.615190652461773e-14 -0.9659258262890692
  outer loop
    vertex 23.860801251542625 88.70078350001248 11.908408974997675
    vertex 22.77548695450415 93.60078350001243 12.357960876268026
    vertex 23.86080125154276 93.60078350001247 11.908408974997243
  endloop
endfacet
facet normal -0.5000000000000728 -1.0278484814742218e-13 -0.8660254037843967
  outer loop
    vertex 22.77548695450415 93.60078350001243 12.357960876268026
    vertex 23.860801251542625 88.70078350001248 11.908408974997675
    vertex 22.775486954504036 88.70078350001248 12.35796087626849
  endloop
endfacet
facet normal -0.25881904510247633 3.6829144491721074e-14 0.9659258262890803
  outer loop
    vertex 23.860801251543116 93.60078350001282 20.601741411599008
    vertex 22.77548695450438 88.70078350001289 20.152189510328494
    vertex 23.860801251543062 88.70078350001282 20.601741411599292
  endloop
endfacet
facet normal -0.4999999999999887 3.906962874135183e-14 0.8660254037844454
  outer loop
    vertex 22.77548695450438 88.70078350001289 20.152189510328494
    vertex 23.860801251543116 93.60078350001282 20.601741411599008
    vertex 22.77548695450446 93.60078350001292 20.152189510328217
  endloop
endfacet
facet normal 0.2588190451025178 2.1147734361063054e-14 0.9659258262890692
  outer loop
    vertex 25.60782980598493 88.70078350001275 18.428408302448833
    vertex 26.150486954503688 67.70078350001259 18.20363235181421
    vertex 26.150486954504267 88.70078350001269 18.203632351813535
  endloop
endfacet
facet normal 0.5000000000000067 1.4142147588500432e-14 0.8660254037844349
  outer loop
    vertex 26.150486954503688 67.70078350001259 18.20363235181421
    vertex 25.60782980598493 88.70078350001275 18.428408302448833
    vertex 25.60782980598441 67.70078350001259 18.428408302449608
  endloop
endfacet
facet normal -0.8660254037844438 -4.9965528099668446e-14 -0.49999999999999123
  outer loop
    vertex 21.128372637474353 93.60078350001244 14.005075193298055
    vertex 20.678820736203413 88.70078350001259 15.090389490336912
    vertex 20.678820736203537 93.60078350001261 15.090389490337053
  endloop
endfacet
facet normal -0.9659258262890731 6.4149004956215736e-15 -0.25881904510250336
  outer loop
    vertex 20.678820736203413 88.70078350001259 15.090389490336912
    vertex 21.128372637474353 93.60078350001244 14.005075193298055
    vertex 21.12837263747424 88.70078350001255 14.005075193298731
  endloop
endfacet
facet normal -2.3954960741285248e-14 -1.0 4.3413740943567336e-14
  outer loop
    vertex 28.922601271534 88.7007835000123 14.005075193298065
    vertex 25.607829805984807 88.7007835000125 14.081742084147846
    vertex 25.02548695450403 88.70078350001248 14.005075193298438
  endloop
endfacet
facet normal -2.3954960741285248e-14 -1.0 4.3413740943567336e-14
  outer loop
    vertex 25.607829805984807 88.7007835000125 14.081742084147846
    vertex 28.922601271534 88.7007835000123 14.005075193298065
    vertex 29.372153172804907 88.70078350001252 15.090389490337003
  endloop
endfacet
facet normal -2.3954960741285248e-14 -1.0 4.3413740943567336e-14
  outer loop
    vertex 25.607829805984807 88.7007835000125 14.081742084147846
    vertex 29.372153172804907 88.70078350001252 15.090389490337003
    vertex 26.150486954504043 88.70078350001249 14.306518034783323
  endloop
endfacet
facet normal -2.3954960741285248e-14 -1.0 4.3413740943567336e-14
  outer loop
    vertex 26.150486954504043 88.70078350001249 14.306518034783323
    vertex 29.372153172804907 88.70078350001252 15.090389490337003
    vertex 26.61647721217386 88.70078350001238 14.664084935628566
  endloop
endfacet
facet normal -2.3954960741285248e-14 -1.0 4.3413740943567336e-14
  outer loop
    vertex 26.61647721217386 88.70078350001238 14.664084935628566
    vertex 29.372153172804907 88.70078350001252 15.090389490337003
    vertex 26.916494588920592 88.70078350001238 15.05507519329795
  endloop
endfacet
facet normal -2.3954960741285248e-14 -1.0 4.3413740943567336e-14
  outer loop
    vertex 26.916494588920592 88.70078350001238 15.05507519329795
    vertex 29.372153172804907 88.70078350001252 15.090389490337003
    vertex 26.916494588920617 88.70078350001235 15.65507519329795
  endloop
endfacet
facet normal -2.3954960741285248e-14 -1.0 4.3413740943567336e-14
  outer loop
    vertex 26.916494588920617 88.70078350001235 15.65507519329795
    vertex 29.372153172804907 88.70078350001252 15.090389490337003
    vertex 29.525486954504178 88.70078350001249 16.25507519329844
  endloop
endfacet
facet normal -2.3954960741285248e-14 -1.0 4.3413740943567336e-14
  outer loop
    vertex 26.916494588920617 88.70078350001235 15.65507519329795
    vertex 29.525486954504178 88.70078350001249 16.25507519329844
    vertex 26.9164945889205 88.70078350001238 16.65507519329796
  endloop
endfacet
facet normal -2.3954960741285248e-14 -1.0 4.3413740943567336e-14
  outer loop
    vertex 26.9164945889205 88.70078350001238 16.65507519329796
    vertex 29.525486954504178 88.70078350001249 16.25507519329844
    vertex 29.372153172805014 88.70078350001262 17.41976089625956
  endloop
endfacet
facet normal -2.3954960741285248e-14 -1.0 4.3413740943567336e-14
  outer loop
    vertex 26.9164945889205 88.70078350001238 16.65507519329796
    vertex 29.372153172805014 88.70078350001262 17.41976089625956
    vertex 26.91649458892051 88.7007835000125 17.455075193297958
  endloop
endfacet
facet normal -2.3954960741285248e-14 -1.0 4.3413740943567336e-14
  outer loop
    vertex 26.91649458892051 88.7007835000125 17.455075193297958
    vertex 29.372153172805014 88.70078350001262 17.41976089625956
    vertex 28.92260127153421 88.70078350001256 18.50507519329801
  endloop
endfacet
facet normal -2.3954960741285248e-14 -1.0 4.3413740943567336e-14
  outer loop
    vertex 26.91649458892051 88.7007835000125 17.455075193297958
    vertex 28.92260127153421 88.70078350001256 18.50507519329801
    vertex 26.61647721217396 88.70078350001253 17.846065450968084
  endloop
endfacet
facet normal -2.3954960741285248e-14 -1.0 4.3413740943567336e-14
  outer loop
    vertex 26.61647721217396 88.70078350001253 17.846065450968084
    vertex 28.92260127153421 88.70078350001256 18.50507519329801
    vertex 26.150486954504267 88.70078350001269 18.203632351813535
  endloop
endfacet
facet normal -2.3954960741285248e-14 -1.0 4.3413740943567336e-14
  outer loop
    vertex 26.150486954504267 88.70078350001269 18.203632351813535
    vertex 28.92260127153421 88.70078350001256 18.50507519329801
    vertex 25.60782980598493 88.70078350001275 18.428408302448833
  endloop
endfacet
facet normal -2.3954960741285248e-14 -1.0 4.3413740943567336e-14
  outer loop
    vertex 25.60782980598493 88.70078350001275 18.428408302448833
    vertex 28.92260127153421 88.70078350001256 18.50507519329801
    vertex 25.025486954504288 88.70078350001278 18.505075193298527
  endloop
endfacet
facet normal -2.3954960741285248e-14 -1.0 4.3413740943567336e-14
  outer loop
    vertex 25.025486954504288 88.70078350001278 18.505075193298527
    vertex 28.92260127153421 88.70078350001256 18.50507519329801
    vertex 28.207467469843714 88.70078350001275 19.43705570863768
  endloop
endfacet
facet normal -2.3954960741285248e-14 -1.0 4.3413740943567336e-14
  outer loop
    vertex 25.025486954504288 88.70078350001278 18.505075193298527
    vertex 28.207467469843714 88.70078350001275 19.43705570863768
    vertex 21.128372637474385 88.70078350001282 18.50507519329877
  endloop
endfacet
facet normal -2.3954960741285248e-14 -1.0 4.3413740943567336e-14
  outer loop
    vertex 21.128372637474385 88.70078350001282 18.50507519329877
    vertex 28.207467469843714 88.70078350001275 19.43705570863768
    vertex 21.843506439165036 88.70078350001285 19.437055708638027
  endloop
endfacet
facet normal -2.3954960741285248e-14 -1.0 4.3413740943567336e-14
  outer loop
    vertex 21.843506439165036 88.70078350001285 19.437055708638027
    vertex 28.207467469843714 88.70078350001275 19.43705570863768
    vertex 27.275486954504373 88.70078350001275 20.152189510328054
  endloop
endfacet
facet normal -2.3954960741285248e-14 -1.0 4.3413740943567336e-14
  outer loop
    vertex 21.843506439165036 88.70078350001285 19.437055708638027
    vertex 27.275486954504373 88.70078350001275 20.152189510328054
    vertex 22.77548695450438 88.70078350001289 20.152189510328494
  endloop
endfacet
facet normal -2.3954960741285248e-14 -1.0 4.3413740943567336e-14
  outer loop
    vertex 22.77548695450438 88.70078350001289 20.152189510328494
    vertex 27.275486954504373 88.70078350001275 20.152189510328054
    vertex 26.190172657465734 88.70078350001275 20.60174141159916
  endloop
endfacet
facet normal -2.3954960741285248e-14 -1.0 4.3413740943567336e-14
  outer loop
    vertex 22.77548695450438 88.70078350001289 20.152189510328494
    vertex 26.190172657465734 88.70078350001275 20.60174141159916
    vertex 23.860801251543062 88.70078350001282 20.601741411599292
  endloop
endfacet
facet normal -2.3954960741285248e-14 -1.0 4.3413740943567336e-14
  outer loop
    vertex 23.860801251543062 88.70078350001282 20.601741411599292
    vertex 26.190172657465734 88.70078350001275 20.60174141159916
    vertex 25.025486954504395 88.70078350001275 20.755075193298378
  endloop
endfacet
facet normal -2.3954960741285248e-14 -1.0 4.3413740943567336e-14
  outer loop
    vertex 26.190172657465173 88.7007835000123 11.90840897499761
    vertex 23.860801251542625 88.70078350001248 11.908408974997675
    vertex 25.025486954503915 88.70078350001236 11.755075193298431
  endloop
endfacet
facet normal -2.3954960741285248e-14 -1.0 4.3413740943567336e-14
  outer loop
    vertex 23.860801251542625 88.70078350001248 11.908408974997675
    vertex 26.190172657465173 88.7007835000123 11.90840897499761
    vertex 22.775486954504036 88.70078350001248 12.35796087626849
  endloop
endfacet
facet normal -2.3954960741285248e-14 -1.0 4.3413740943567336e-14
  outer loop
    vertex 22.775486954504036 88.70078350001248 12.35796087626849
    vertex 26.190172657465173 88.7007835000123 11.90840897499761
    vertex 27.275486954503922 88.70078350001249 12.357960876268352
  endloop
endfacet
facet normal -2.3954960741285248e-14 -1.0 4.3413740943567336e-14
  outer loop
    vertex 22.775486954504036 88.70078350001248 12.35796087626849
    vertex 27.275486954503922 88.70078350001249 12.357960876268352
    vertex 21.84350643916468 88.70078350001266 13.07309467795929
  endloop
endfacet
facet normal -2.3954960741285248e-14 -1.0 4.3413740943567336e-14
  outer loop
    vertex 21.84350643916468 88.70078350001266 13.07309467795929
    vertex 27.275486954503922 88.70078350001249 12.357960876268352
    vertex 28.207467469843465 88.70078350001239 13.073094677958624
  endloop
endfacet
facet normal -2.3954960741285248e-14 -1.0 4.3413740943567336e-14
  outer loop
    vertex 21.84350643916468 88.70078350001266 13.07309467795929
    vertex 28.207467469843465 88.70078350001239 13.073094677958624
    vertex 28.922601271534 88.7007835000123 14.005075193298065
  endloop
endfacet
facet normal -2.3954960741285248e-14 -1.0 4.3413740943567336e-14
  outer loop
    vertex 21.84350643916468 88.70078350001266 13.07309467795929
    vertex 28.922601271534 88.7007835000123 14.005075193298065
    vertex 21.12837263747424 88.70078350001255 14.005075193298731
  endloop
endfacet
facet normal -2.3954960741285248e-14 -1.0 4.3413740943567336e-14
  outer loop
    vertex 21.12837263747424 88.70078350001255 14.005075193298731
    vertex 28.922601271534 88.7007835000123 14.005075193298065
    vertex 25.02548695450403 88.70078350001248 14.005075193298438
  endloop
endfacet
facet normal -2.3954960741285248e-14 -1.0 4.3413740943567336e-14
  outer loop
    vertex 21.12837263747424 88.70078350001255 14.005075193298731
    vertex 25.02548695450403 88.70078350001248 14.005075193298438
    vertex 24.443144103023403 88.70078350001248 14.081742084147942
  endloop
endfacet
facet normal -2.3954960741285248e-14 -1.0 4.3413740943567336e-14
  outer loop
    vertex 21.12837263747424 88.70078350001255 14.005075193298731
    vertex 24.443144103023403 88.70078350001248 14.081742084147942
    vertex 20.678820736203413 88.70078350001259 15.090389490336912
  endloop
endfacet
facet normal -2.3954960741285248e-14 -1.0 4.3413740943567336e-14
  outer loop
    vertex 20.678820736203413 88.70078350001259 15.090389490336912
    vertex 24.443144103023403 88.70078350001248 14.081742084147942
    vertex 23.900486954504135 88.70078350001253 14.306518034783394
  endloop
endfacet
facet normal -2.3954960741285248e-14 -1.0 4.3413740943567336e-14
  outer loop
    vertex 20.678820736203413 88.70078350001259 15.090389490336912
    vertex 23.900486954504135 88.70078350001253 14.306518034783394
    vertex 23.43449669683432 88.70078350001265 14.664084935628757
  endloop
endfacet
facet normal -2.3954960741285248e-14 -1.0 4.3413740943567336e-14
  outer loop
    vertex 20.678820736203413 88.70078350001259 15.090389490336912
    vertex 23.43449669683432 88.70078350001265 14.664084935628757
    vertex 23.134479320087287 88.70078350001228 15.055075193298126
  endloop
endfacet
facet normal -2.3954960741285248e-14 -1.0 4.3413740943567336e-14
  outer loop
    vertex 20.678820736203413 88.70078350001259 15.090389490336912
    vertex 23.134479320087287 88.70078350001228 15.055075193298126
    vertex 23.13447932008735 88.70078350001234 15.655075193298124
  endloop
endfacet
facet normal -2.3954960741285248e-14 -1.0 4.3413740943567336e-14
  outer loop
    vertex 20.678820736203413 88.70078350001259 15.090389490336912
    vertex 23.13447932008735 88.70078350001234 15.655075193298124
    vertex 20.525486954504323 88.7007835000127 16.25507519329882
  endloop
endfacet
facet normal -2.3954960741285248e-14 -1.0 4.3413740943567336e-14
  outer loop
    vertex 20.525486954504323 88.7007835000127 16.25507519329882
    vertex 23.13447932008735 88.70078350001234 15.655075193298124
    vertex 23.134479320087518 88.70078350001243 16.655075193298135
  endloop
endfacet
facet normal -2.3954960741285248e-14 -1.0 4.3413740943567336e-14
  outer loop
    vertex 20.525486954504323 88.7007835000127 16.25507519329882
    vertex 23.134479320087518 88.70078350001243 16.655075193298135
    vertex 20.678820736203587 88.70078350001269 17.419760896260147
  endloop
endfacet
facet normal -2.3954960741285248e-14 -1.0 4.3413740943567336e-14
  outer loop
    vertex 20.678820736203587 88.70078350001269 17.419760896260147
    vertex 23.134479320087518 88.70078350001243 16.655075193298135
    vertex 23.134479320087554 88.70078350001259 17.455075193298132
  endloop
endfacet
facet normal -2.3954960741285248e-14 -1.0 4.3413740943567336e-14
  outer loop
    vertex 20.678820736203587 88.70078350001269 17.419760896260147
    vertex 23.134479320087554 88.70078350001259 17.455075193298132
    vertex 21.128372637474385 88.70078350001282 18.50507519329877
  endloop
endfacet
facet normal -2.3954960741285248e-14 -1.0 4.3413740943567336e-14
  outer loop
    vertex 21.128372637474385 88.70078350001282 18.50507519329877
    vertex 23.134479320087554 88.70078350001259 17.455075193298132
    vertex 23.434496696834557 88.70078350001269 17.846065450968343
  endloop
endfacet
facet normal -2.3954960741285248e-14 -1.0 4.3413740943567336e-14
  outer loop
    vertex 21.128372637474385 88.70078350001282 18.50507519329877
    vertex 23.434496696834557 88.70078350001269 17.846065450968343
    vertex 23.900486954504284 88.70078350001265 18.203632351813503
  endloop
endfacet
facet normal -2.3954960741285248e-14 -1.0 4.3413740943567336e-14
  outer loop
    vertex 21.128372637474385 88.70078350001282 18.50507519329877
    vertex 23.900486954504284 88.70078350001265 18.203632351813503
    vertex 24.443144103023606 88.70078350001272 18.428408302448965
  endloop
endfacet
facet normal -2.3954960741285248e-14 -1.0 4.3413740943567336e-14
  outer loop
    vertex 21.128372637474385 88.70078350001282 18.50507519329877
    vertex 24.443144103023606 88.70078350001272 18.428408302448965
    vertex 25.025486954504288 88.70078350001278 18.505075193298527
  endloop
endfacet
facet normal 0.7071067811864804 -5.643774762936286e-14 -0.7071067811866146
  outer loop
    vertex 26.616477212173347 67.70078350001242 14.664084935629594
    vertex 26.150486954504043 88.70078350001249 14.306518034783323
    vertex 26.61647721217386 88.70078350001238 14.664084935628566
  endloop
endfacet
facet normal 0.500000000000012 -5.659405876330132e-14 -0.8660254037844318
  outer loop
    vertex 26.150486954504043 88.70078350001249 14.306518034783323
    vertex 26.616477212173347 67.70078350001242 14.664084935629594
    vertex 26.150486954503595 67.7007835000126 14.306518034784355
  endloop
endfacet
facet normal 0.8660254037844712 -2.4861729628211703e-14 0.4999999999999436
  outer loop
    vertex 28.922601271534266 93.6007835000126 18.50507519329797
    vertex 29.372153172805014 88.70078350001262 17.41976089625956
    vertex 29.372153172805096 93.60078350001265 17.41976089625909
  endloop
endfacet
facet normal 0.9659258262890751 -3.657533153989091e-16 0.2588190451024954
  outer loop
    vertex 29.372153172805014 88.70078350001262 17.41976089625956
    vertex 28.922601271534266 93.6007835000126 18.50507519329797
    vertex 28.92260127153421 88.70078350001256 18.50507519329801
  endloop
endfacet
facet normal -0.25881904510266096 -2.7424233911706427e-14 -0.9659258262890307
  outer loop
    vertex 24.44314410302291 67.70078350001255 14.081742084148786
    vertex 23.900486954504135 88.70078350001253 14.306518034783394
    vertex 24.443144103023403 88.70078350001248 14.081742084147942
  endloop
endfacet
facet normal -0.5000000000001066 -2.698541707212725e-14 -0.8660254037843772
  outer loop
    vertex 23.900486954504135 88.70078350001253 14.306518034783394
    vertex 24.44314410302291 67.70078350001255 14.081742084148786
    vertex 23.90048695450356 67.7007835000126 14.306518034784409
  endloop
endfacet
facet normal 0.4999999999999966 1.4142147588500603e-14 0.8660254037844406
  outer loop
    vertex 26.150486954504267 88.70078350001269 18.203632351813535
    vertex 26.616477212173425 67.70078350001255 17.846065450969043
    vertex 26.61647721217396 88.70078350001253 17.846065450968084
  endloop
endfacet
facet normal 0.7071067811867401 1.900169671151363e-14 0.7071067811863551
  outer loop
    vertex 26.616477212173425 67.70078350001255 17.846065450969043
    vertex 26.150486954504267 88.70078350001269 18.203632351813535
    vertex 26.150486954503688 67.70078350001259 18.20363235181421
  endloop
endfacet
facet normal 0.25881904510260983 -4.667530474903825e-14 -0.9659258262890446
  outer loop
    vertex 25.607829805984274 67.70078350001258 14.081742084148868
    vertex 26.150486954504043 88.70078350001249 14.306518034783323
    vertex 26.150486954503595 67.7007835000126 14.306518034784355
  endloop
endfacet
facet normal 0.500000000000012 -5.659405876330132e-14 -0.8660254037844318
  outer loop
    vertex 26.150486954504043 88.70078350001249 14.306518034783323
    vertex 25.607829805984274 67.70078350001258 14.081742084148868
    vertex 25.607829805984807 88.7007835000125 14.081742084147846
  endloop
endfacet
facet normal -0.25881904510266096 -2.7424233911706427e-14 -0.9659258262890307
  outer loop
    vertex 24.44314410302291 67.70078350001255 14.081742084148786
    vertex 25.02548695450403 88.70078350001248 14.005075193298438
    vertex 25.025486954503606 67.70078350001246 14.00507519329898
  endloop
endfacet
facet normal -1.1821592160236688e-14 -2.976018661741823e-14 -1.0
  outer loop
    vertex 25.02548695450403 88.70078350001248 14.005075193298438
    vertex 24.44314410302291 67.70078350001255 14.081742084148786
    vertex 24.443144103023403 88.70078350001248 14.081742084147942
  endloop
endfacet
facet normal 1.0049604673182102e-13 2.9097702374104064e-14 1.0
  outer loop
    vertex 25.025486954504288 88.70078350001278 18.505075193298527
    vertex 25.60782980598441 67.70078350001259 18.428408302449608
    vertex 25.60782980598493 88.70078350001275 18.428408302448833
  endloop
endfacet
facet normal 0.25881904510252013 2.1147734361062956e-14 0.9659258262890684
  outer loop
    vertex 25.60782980598441 67.70078350001259 18.428408302449608
    vertex 25.025486954504288 88.70078350001278 18.505075193298527
    vertex 25.02548695450377 67.70078350001262 18.50507519329924
  endloop
endfacet
facet normal 5.75712303644876e-14 3.22002918569177e-14 1.0
  outer loop
    vertex 25.02548695450446 93.60078350001277 20.755075193298133
    vertex 23.860801251543062 88.70078350001282 20.601741411599292
    vertex 25.025486954504395 88.70078350001275 20.755075193298378
  endloop
endfacet
facet normal -0.2588190451024655 3.682914449172055e-14 0.9659258262890832
  outer loop
    vertex 23.860801251543062 88.70078350001282 20.601741411599292
    vertex 25.02548695450446 93.60078350001277 20.755075193298133
    vertex 23.860801251543116 93.60078350001282 20.601741411599008
  endloop
endfacet
facet normal 0.8660254037844412 8.851717669727558e-16 -0.4999999999999959
  outer loop
    vertex 28.922601271534056 93.6007835000123 14.005075193298094
    vertex 28.207467469843465 88.70078350001239 13.073094677958624
    vertex 28.20746746984363 93.60078350001241 13.073094677958533
  endloop
endfacet
facet normal 0.7071067811865395 -3.1206180295084516e-14 -0.7071067811865556
  outer loop
    vertex 28.207467469843465 88.70078350001239 13.073094677958624
    vertex 28.922601271534056 93.6007835000123 14.005075193298094
    vertex 28.922601271534 88.7007835000123 14.005075193298065
  endloop
endfacet
facet normal -0.9659258262890792 6.41490049562101e-15 -0.2588190451024806
  outer loop
    vertex 20.678820736203537 93.60078350001261 15.090389490337053
    vertex 20.525486954504323 88.7007835000127 16.25507519329882
    vertex 20.525486954504302 93.60078350001284 16.25507519329852
  endloop
endfacet
facet normal -1.0 -1.9845247047817917e-14 3.609545551598043e-14
  outer loop
    vertex 20.525486954504323 88.7007835000127 16.25507519329882
    vertex 20.678820736203537 93.60078350001261 15.090389490337053
    vertex 20.678820736203413 88.70078350001259 15.090389490336912
  endloop
endfacet
facet normal 0.500000000000045 -2.1848125787520914e-14 0.8660254037844127
  outer loop
    vertex 27.275486954504423 93.60078350001272 20.15218951032799
    vertex 28.207467469843714 88.70078350001275 19.43705570863768
    vertex 28.207467469843856 93.60078350001274 19.437055708637548
  endloop
endfacet
facet normal 0.7071067811865761 -4.0548732450251944e-14 0.707106781186519
  outer loop
    vertex 28.207467469843714 88.70078350001275 19.43705570863768
    vertex 27.275486954504423 93.60078350001272 20.15218951032799
    vertex 27.275486954504373 88.70078350001275 20.152189510328054
  endloop
endfacet
facet normal 0.7071067811865395 -3.1206180295084516e-14 -0.7071067811865556
  outer loop
    vertex 28.207467469843465 88.70078350001239 13.073094677958624
    vertex 27.275486954504107 93.60078350001243 12.357960876267848
    vertex 28.20746746984363 93.60078350001241 13.073094677958533
  endloop
endfacet
facet normal 0.4999999999999277 -1.0239766637316844e-13 -0.8660254037844806
  outer loop
    vertex 27.275486954504107 93.60078350001243 12.357960876267848
    vertex 28.207467469843465 88.70078350001239 13.073094677958624
    vertex 27.275486954503922 88.70078350001249 12.357960876268352
  endloop
endfacet
facet normal -0.8660254037843877 1.9729694842804138e-14 0.5000000000000884
  outer loop
    vertex 21.128372637474413 93.6007835000128 18.505075193298158
    vertex 21.843506439165036 88.70078350001285 19.437055708638027
    vertex 21.843506439164965 93.60078350001287 19.437055708637676
  endloop
endfacet
facet normal -0.707106781186516 4.208938176766815e-14 0.7071067811865791
  outer loop
    vertex 21.843506439165036 88.70078350001285 19.437055708638027
    vertex 21.128372637474413 93.6007835000128 18.505075193298158
    vertex 21.128372637474385 88.70078350001282 18.50507519329877
  endloop
endfacet
facet normal 2.3439248122778764e-14 1.0 -5.1104649914311404e-14
  outer loop
    vertex 23.86080125154276 93.60078350001247 11.908408974997243
    vertex 26.190172657465347 93.6007835000123 11.908408974997167
    vertex 25.025486954504057 93.60078350001234 11.75507519329808
  endloop
endfacet
facet normal 2.3439248122778764e-14 1.0 -5.1104649914311404e-14
  outer loop
    vertex 26.190172657465347 93.6007835000123 11.908408974997167
    vertex 23.86080125154276 93.60078350001247 11.908408974997243
    vertex 22.77548695450415 93.60078350001243 12.357960876268026
  endloop
endfacet
facet normal 2.3439248122778764e-14 1.0 -5.1104649914311404e-14
  outer loop
    vertex 26.190172657465347 93.6007835000123 11.908408974997167
    vertex 22.77548695450415 93.60078350001243 12.357960876268026
    vertex 27.275486954504107 93.60078350001243 12.357960876267848
  endloop
endfacet
facet normal 2.3439248122778764e-14 1.0 -5.1104649914311404e-14
  outer loop
    vertex 27.275486954504107 93.60078350001243 12.357960876267848
    vertex 22.77548695450415 93.60078350001243 12.357960876268026
    vertex 21.843506439164734 93.60078350001258 13.073094677958647
  endloop
endfacet
facet normal 2.3439248122778764e-14 1.0 -5.1104649914311404e-14
  outer loop
    vertex 27.275486954504107 93.60078350001243 12.357960876267848
    vertex 21.843506439164734 93.60078350001258 13.073094677958647
    vertex 28.20746746984363 93.60078350001241 13.073094677958533
  endloop
endfacet
facet normal 2.3439248122778764e-14 1.0 -5.1104649914311404e-14
  outer loop
    vertex 28.20746746984363 93.60078350001241 13.073094677958533
    vertex 21.843506439164734 93.60078350001258 13.073094677958647
    vertex 21.128372637474353 93.60078350001244 14.005075193298055
  endloop
endfacet
facet normal 2.3439248122778764e-14 1.0 -5.1104649914311404e-14
  outer loop
    vertex 28.20746746984363 93.60078350001241 13.073094677958533
    vertex 21.128372637474353 93.60078350001244 14.005075193298055
    vertex 28.922601271534056 93.6007835000123 14.005075193298094
  endloop
endfacet
facet normal 2.3439248122778764e-14 1.0 -5.1104649914311404e-14
  outer loop
    vertex 28.922601271534056 93.6007835000123 14.005075193298094
    vertex 21.128372637474353 93.60078350001244 14.005075193298055
    vertex 20.678820736203537 93.60078350001261 15.090389490337053
  endloop
endfacet
facet normal 2.3439248122778764e-14 1.0 -5.1104649914311404e-14
  outer loop
    vertex 28.922601271534056 93.6007835000123 14.005075193298094
    vertex 20.678820736203537 93.60078350001261 15.090389490337053
    vertex 29.372153172804943 93.60078350001254 15.090389490336573
  endloop
endfacet
facet normal 2.3439248122778764e-14 1.0 -5.1104649914311404e-14
  outer loop
    vertex 29.372153172804943 93.60078350001254 15.090389490336573
    vertex 20.678820736203537 93.60078350001261 15.090389490337053
    vertex 29.525486954504206 93.60078350001258 16.25507519329789
  endloop
endfacet
facet normal 2.3439248122778764e-14 1.0 -5.1104649914311404e-14
  outer loop
    vertex 29.525486954504206 93.60078350001258 16.25507519329789
    vertex 20.678820736203537 93.60078350001261 15.090389490337053
    vertex 20.525486954504302 93.60078350001284 16.25507519329852
  endloop
endfacet
facet normal 2.3439248122778764e-14 1.0 -5.1104649914311404e-14
  outer loop
    vertex 29.525486954504206 93.60078350001258 16.25507519329789
    vertex 20.525486954504302 93.60078350001284 16.25507519329852
    vertex 29.372153172805096 93.60078350001265 17.41976089625909
  endloop
endfacet
facet normal 2.3439248122778764e-14 1.0 -5.1104649914311404e-14
  outer loop
    vertex 29.372153172805096 93.60078350001265 17.41976089625909
    vertex 20.525486954504302 93.60078350001284 16.25507519329852
    vertex 20.678820736203495 93.6007835000128 17.419760896260087
  endloop
endfacet
facet normal 2.3439248122778764e-14 1.0 -5.1104649914311404e-14
  outer loop
    vertex 29.372153172805096 93.60078350001265 17.41976089625909
    vertex 20.678820736203495 93.6007835000128 17.419760896260087
    vertex 28.922601271534266 93.6007835000126 18.50507519329797
  endloop
endfacet
facet normal 2.3439248122778764e-14 1.0 -5.1104649914311404e-14
  outer loop
    vertex 28.922601271534266 93.6007835000126 18.50507519329797
    vertex 20.678820736203495 93.6007835000128 17.419760896260087
    vertex 21.128372637474413 93.6007835000128 18.505075193298158
  endloop
endfacet
facet normal 2.3439248122778764e-14 1.0 -5.1104649914311404e-14
  outer loop
    vertex 28.922601271534266 93.6007835000126 18.50507519329797
    vertex 21.128372637474413 93.6007835000128 18.505075193298158
    vertex 21.843506439164965 93.60078350001287 19.437055708637676
  endloop
endfacet
facet normal 2.3439248122778764e-14 1.0 -5.1104649914311404e-14
  outer loop
    vertex 28.922601271534266 93.6007835000126 18.50507519329797
    vertex 21.843506439164965 93.60078350001287 19.437055708637676
    vertex 28.207467469843856 93.60078350001274 19.437055708637548
  endloop
endfacet
facet normal 2.3439248122778764e-14 1.0 -5.1104649914311404e-14
  outer loop
    vertex 28.207467469843856 93.60078350001274 19.437055708637548
    vertex 21.843506439164965 93.60078350001287 19.437055708637676
    vertex 22.77548695450446 93.60078350001292 20.152189510328217
  endloop
endfacet
facet normal 2.3439248122778764e-14 1.0 -5.1104649914311404e-14
  outer loop
    vertex 28.207467469843856 93.60078350001274 19.437055708637548
    vertex 22.77548695450446 93.60078350001292 20.152189510328217
    vertex 27.275486954504423 93.60078350001272 20.15218951032799
  endloop
endfacet
facet normal 2.3439248122778764e-14 1.0 -5.1104649914311404e-14
  outer loop
    vertex 27.275486954504423 93.60078350001272 20.15218951032799
    vertex 22.77548695450446 93.60078350001292 20.152189510328217
    vertex 26.19017265746579 93.60078350001274 20.601741411598862
  endloop
endfacet
facet normal 2.3439248122778764e-14 1.0 -5.1104649914311404e-14
  outer loop
    vertex 26.19017265746579 93.60078350001274 20.601741411598862
    vertex 22.77548695450446 93.60078350001292 20.152189510328217
    vertex 23.860801251543116 93.60078350001282 20.601741411599008
  endloop
endfacet
facet normal 2.3439248122778764e-14 1.0 -5.1104649914311404e-14
  outer loop
    vertex 26.19017265746579 93.60078350001274 20.601741411598862
    vertex 23.860801251543116 93.60078350001282 20.601741411599008
    vertex 25.02548695450446 93.60078350001277 20.755075193298133
  endloop
endfacet
facet normal -0.500000000000073 -1.027848481474222e-13 -0.8660254037843965
  outer loop
    vertex 22.775486954504036 88.70078350001248 12.35796087626849
    vertex 21.843506439164734 93.60078350001258 13.073094677958647
    vertex 22.77548695450415 93.60078350001243 12.357960876268026
  endloop
endfacet
facet normal -0.7071067811866188 -1.1187149144479311e-13 -0.7071067811864763
  outer loop
    vertex 21.843506439164734 93.60078350001258 13.073094677958647
    vertex 22.775486954504036 88.70078350001248 12.35796087626849
    vertex 21.84350643916468 88.70078350001266 13.07309467795929
  endloop
endfacet
facet normal -0.2588190451023767 4.0091433150974153e-14 0.965925826289107
  outer loop
    vertex 24.443144103023606 88.70078350001272 18.428408302448965
    vertex 25.02548695450377 67.70078350001262 18.50507519329924
    vertex 25.025486954504288 88.70078350001278 18.505075193298527
  endloop
endfacet
facet normal 9.651278060846404e-14 2.909770237410416e-14 1.0
  outer loop
    vertex 25.02548695450377 67.70078350001262 18.50507519329924
    vertex 24.443144103023606 88.70078350001272 18.428408302448965
    vertex 24.443144103023133 67.70078350001262 18.428408302449707
  endloop
endfacet
facet normal -0.9659258262890502 -2.6244461879033407e-14 0.2588190451025882
  outer loop
    vertex 20.678820736203587 88.70078350001269 17.419760896260147
    vertex 21.128372637474413 93.6007835000128 18.505075193298158
    vertex 20.678820736203495 93.6007835000128 17.419760896260087
  endloop
endfacet
facet normal -0.8660254037843877 1.9729694842804138e-14 0.5000000000000884
  outer loop
    vertex 21.128372637474413 93.6007835000128 18.505075193298158
    vertex 20.678820736203587 88.70078350001269 17.419760896260147
    vertex 21.128372637474385 88.70078350001282 18.50507519329877
  endloop
endfacet
facet normal 0.25881904510260934 1.425255590392533e-14 0.9659258262890446
  outer loop
    vertex 26.19017265746579 93.60078350001274 20.601741411598862
    vertex 25.025486954504395 88.70078350001275 20.755075193298378
    vertex 26.190172657465734 88.70078350001275 20.60174141159916
  endloop
endfacet
facet normal 6.117131876232934e-14 3.2200291856917736e-14 1.0
  outer loop
    vertex 25.025486954504395 88.70078350001275 20.755075193298378
    vertex 26.19017265746579 93.60078350001274 20.601741411598862
    vertex 25.02548695450446 93.60078350001277 20.755075193298133
  endloop
endfacet
facet normal 0.25881904510260983 -4.667530474903825e-14 -0.9659258262890446
  outer loop
    vertex 25.607829805984274 67.70078350001258 14.081742084148868
    vertex 25.02548695450403 88.70078350001248 14.005075193298438
    vertex 25.607829805984807 88.7007835000125 14.081742084147846
  endloop
endfacet
facet normal -1.1821592160236688e-14 -2.976018661741823e-14 -1.0
  outer loop
    vertex 25.02548695450403 88.70078350001248 14.005075193298438
    vertex 25.607829805984274 67.70078350001258 14.081742084148868
    vertex 25.025486954503606 67.70078350001246 14.00507519329898
  endloop
endfacet
facet normal -0.707106781186629 -1.1187149144479282e-13 -0.7071067811864661
  outer loop
    vertex 21.84350643916468 88.70078350001266 13.07309467795929
    vertex 21.128372637474353 93.60078350001244 14.005075193298055
    vertex 21.843506439164734 93.60078350001258 13.073094677958647
  endloop
endfacet
facet normal -0.8660254037844438 -4.9965528099668446e-14 -0.49999999999999123
  outer loop
    vertex 21.128372637474353 93.60078350001244 14.005075193298055
    vertex 21.84350643916468 88.70078350001266 13.07309467795929
    vertex 21.12837263747424 88.70078350001255 14.005075193298731
  endloop
endfacet
facet normal -0.500000000000093 -2.6985417072127754e-14 -0.8660254037843851
  outer loop
    vertex 23.90048695450356 67.7007835000126 14.306518034784409
    vertex 23.43449669683432 88.70078350001265 14.664084935628757
    vertex 23.900486954504135 88.70078350001253 14.306518034783394
  endloop
endfacet
facet normal -0.7071067811864314 -2.4689247017634967e-14 -0.7071067811866636
  outer loop
    vertex 23.43449669683432 88.70078350001265 14.664084935628757
    vertex 23.90048695450356 67.7007835000126 14.306518034784409
    vertex 23.43449669683389 67.70078350001272 14.664084935629651
  endloop
endfacet
facet normal -1.0 -1.9845247047817917e-14 3.609545551598043e-14
  outer loop
    vertex 20.525486954504323 88.7007835000127 16.25507519329882
    vertex 20.678820736203495 93.6007835000128 17.419760896260087
    vertex 20.525486954504302 93.60078350001284 16.25507519329852
  endloop
endfacet
facet normal -0.9659258262890502 -2.6244461879033388e-14 0.2588190451025883
  outer loop
    vertex 20.678820736203495 93.6007835000128 17.419760896260087
    vertex 20.525486954504323 88.7007835000127 16.25507519329882
    vertex 20.678820736203587 88.70078350001269 17.419760896260147
  endloop
endfacet
facet normal -0.4999999999999928 3.9069628741351683e-14 0.8660254037844428
  outer loop
    vertex 22.77548695450446 93.60078350001292 20.152189510328217
    vertex 21.843506439165036 88.70078350001285 19.437055708638027
    vertex 22.77548695450438 88.70078350001289 20.152189510328494
  endloop
endfacet
facet normal -0.707106781186516 4.208938176766815e-14 0.7071067811865791
  outer loop
    vertex 21.843506439165036 88.70078350001285 19.437055708638027
    vertex 22.77548695450446 93.60078350001292 20.152189510328217
    vertex 21.843506439164965 93.60078350001287 19.437055708637676
  endloop
endfacet
facet normal -2.2684235123031137e-14 -8.587318537926099e-14 -1.0
  outer loop
    vertex 25.025486954503915 88.70078350001236 11.755075193298431
    vertex 23.86080125154276 93.60078350001247 11.908408974997243
    vertex 25.025486954504057 93.60078350001234 11.75507519329808
  endloop
endfacet
facet normal -0.258819045102517 -8.615190652461768e-14 -0.9659258262890693
  outer loop
    vertex 23.86080125154276 93.60078350001247 11.908408974997243
    vertex 25.025486954503915 88.70078350001236 11.755075193298431
    vertex 23.860801251542625 88.70078350001248 11.908408974997675
  endloop
endfacet
facet normal 0.500000000000045 -2.1848125787520914e-14 0.8660254037844127
  outer loop
    vertex 27.275486954504423 93.60078350001272 20.15218951032799
    vertex 26.190172657465734 88.70078350001275 20.60174141159916
    vertex 27.275486954504373 88.70078350001275 20.152189510328054
  endloop
endfacet
facet normal 0.2588190451026066 1.4252555903925747e-14 0.9659258262890454
  outer loop
    vertex 26.190172657465734 88.70078350001275 20.60174141159916
    vertex 27.275486954504423 93.60078350001272 20.15218951032799
    vertex 26.19017265746579 93.60078350001274 20.601741411598862
  endloop
endfacet
facet normal 0.7071067811865761 -4.0548732450251944e-14 0.707106781186519
  outer loop
    vertex 28.207467469843714 88.70078350001275 19.43705570863768
    vertex 28.922601271534266 93.6007835000126 18.50507519329797
    vertex 28.207467469843856 93.60078350001274 19.437055708637548
  endloop
endfacet
facet normal 0.8660254037844712 -2.4861729628211703e-14 0.4999999999999436
  outer loop
    vertex 28.922601271534266 93.6007835000126 18.50507519329797
    vertex 28.207467469843714 88.70078350001275 19.43705570863768
    vertex 28.92260127153421 88.70078350001256 18.50507519329801
  endloop
endfacet
facet normal 0.49999999999992495 -1.0239766637316915e-13 -0.866025403784482
  outer loop
    vertex 27.275486954503922 88.70078350001249 12.357960876268352
    vertex 26.190172657465347 93.6007835000123 11.908408974997167
    vertex 27.275486954504107 93.60078350001243 12.357960876267848
  endloop
endfacet
facet normal 0.25881904510244563 -1.1095738766746118e-13 -0.9659258262890884
  outer loop
    vertex 26.190172657465347 93.6007835000123 11.908408974997167
    vertex 27.275486954503922 88.70078350001249 12.357960876268352
    vertex 26.190172657465173 88.7007835000123 11.90840897499761
  endloop
endfacet
facet normal -0.7071067811865839 5.168686083616166e-14 0.7071067811865112
  outer loop
    vertex 23.434496696834557 88.70078350001269 17.846065450968343
    vertex 23.90048695450372 67.7007835000126 18.203632351814516
    vertex 23.900486954504284 88.70078350001265 18.203632351813503
  endloop
endfacet
facet normal -0.499999999999945 4.9706991369057344e-14 0.8660254037844703
  outer loop
    vertex 23.90048695450372 67.7007835000126 18.203632351814516
    vertex 23.434496696834557 88.70078350001269 17.846065450968343
    vertex 23.43449669683404 67.7007835000128 17.84606545096914
  endloop
endfacet
facet normal -0.4999999999999546 4.9706991369057476e-14 0.866025403784465
  outer loop
    vertex 23.900486954504284 88.70078350001265 18.203632351813503
    vertex 24.443144103023133 67.70078350001262 18.428408302449707
    vertex 24.443144103023606 88.70078350001272 18.428408302448965
  endloop
endfacet
facet normal -0.25881904510238757 4.009143315097485e-14 0.965925826289104
  outer loop
    vertex 24.443144103023133 67.70078350001262 18.428408302449707
    vertex 23.900486954504284 88.70078350001265 18.203632351813503
    vertex 23.90048695450372 67.7007835000126 18.203632351814516
  endloop
endfacet
facet normal -0.7933533402912611 5.1714074457688546e-14 0.608761429008687
  outer loop
    vertex 23.134479320087554 88.70078350001259 17.455075193298132
    vertex 23.43449669683404 67.7007835000128 17.84606545096914
    vertex 23.434496696834557 88.70078350001269 17.846065450968343
  endloop
endfacet
facet normal -0.7071067811865852 5.168686083616167e-14 0.7071067811865098
  outer loop
    vertex 23.43449669683404 67.7007835000128 17.84606545096914
    vertex 23.134479320087554 88.70078350001259 17.455075193298132
    vertex 23.134479320087216 67.70078350001266 17.455075193299592
  endloop
endfacet
facet normal 0.7933533402911527 -5.6571448895714295e-14 -0.6087614290088281
  outer loop
    vertex 26.916494588920592 88.70078350001238 15.05507519329795
    vertex 26.616477212173347 67.70078350001242 14.664084935629594
    vertex 26.61647721217386 88.70078350001238 14.664084935628566
  endloop
endfacet
facet normal 0.7071067811864804 -5.643774762936286e-14 -0.7071067811866146
  outer loop
    vertex 26.616477212173347 67.70078350001242 14.664084935629594
    vertex 26.916494588920592 88.70078350001238 15.05507519329795
    vertex 26.916494588920234 67.70078350001249 15.0550751932994
  endloop
endfacet
facet normal 2.6456678329656172e-14 1.0 6.29600747580235e-14
  outer loop
    vertex 23.13447932008696 67.70078350001262 13.885918434462017
    vertex 25.025486954503606 67.70078350001246 14.00507519329898
    vertex 26.9164945889202 67.70078350001246 13.88591843446192
  endloop
endfacet
facet normal 2.6456678329656172e-14 1.0 6.29600747580235e-14
  outer loop
    vertex 25.025486954503606 67.70078350001246 14.00507519329898
    vertex 23.13447932008696 67.70078350001262 13.885918434462017
    vertex 24.44314410302291 67.70078350001255 14.081742084148786
  endloop
endfacet
facet normal 2.6456678329656172e-14 1.0 6.29600747580235e-14
  outer loop
    vertex 24.44314410302291 67.70078350001255 14.081742084148786
    vertex 23.13447932008696 67.70078350001262 13.885918434462017
    vertex 23.90048695450356 67.7007835000126 14.306518034784409
  endloop
endfacet
facet normal 2.6456678329656172e-14 1.0 6.29600747580235e-14
  outer loop
    vertex 23.90048695450356 67.7007835000126 14.306518034784409
    vertex 23.13447932008696 67.70078350001262 13.885918434462017
    vertex 23.43449669683389 67.70078350001272 14.664084935629651
  endloop
endfacet
facet normal 2.6456678329656172e-14 1.0 6.29600747580235e-14
  outer loop
    vertex 23.43449669683389 67.70078350001272 14.664084935629651
    vertex 23.13447932008696 67.70078350001262 13.885918434462017
    vertex 23.134479320086946 67.70078350001245 15.055075193299576
  endloop
endfacet
facet normal 2.6456678329656172e-14 1.0 6.29600747580235e-14
  outer loop
    vertex 26.9164945889202 67.70078350001246 13.88591843446192
    vertex 26.616477212173347 67.70078350001242 14.664084935629594
    vertex 26.916494588920234 67.70078350001249 15.0550751932994
  endloop
endfacet
facet normal 2.6456678329656172e-14 1.0 6.29600747580235e-14
  outer loop
    vertex 26.616477212173347 67.70078350001242 14.664084935629594
    vertex 26.9164945889202 67.70078350001246 13.88591843446192
    vertex 26.150486954503595 67.7007835000126 14.306518034784355
  endloop
endfacet
facet normal 2.6456678329656172e-14 1.0 6.29600747580235e-14
  outer loop
    vertex 26.150486954503595 67.7007835000126 14.306518034784355
    vertex 26.9164945889202 67.70078350001246 13.88591843446192
    vertex 25.607829805984274 67.70078350001258 14.081742084148868
  endloop
endfacet
facet normal 2.6456678329656172e-14 1.0 6.29600747580235e-14
  outer loop
    vertex 25.607829805984274 67.70078350001258 14.081742084148868
    vertex 26.9164945889202 67.70078350001246 13.88591843446192
    vertex 25.025486954503606 67.70078350001246 14.00507519329898
  endloop
endfacet
facet normal -0.7071067811864624 -2.4689247017635642e-14 -0.7071067811866327
  outer loop
    vertex 23.43449669683389 67.70078350001272 14.664084935629651
    vertex 23.134479320087287 88.70078350001228 15.055075193298126
    vertex 23.43449669683432 88.70078350001265 14.664084935628757
  endloop
endfacet
facet normal -0.7933533402910379 -2.6485596840518405e-14 -0.6087614290089777
  outer loop
    vertex 23.134479320087287 88.70078350001228 15.055075193298126
    vertex 23.43449669683389 67.70078350001272 14.664084935629651
    vertex 23.134479320086946 67.70078350001245 15.055075193299576
  endloop
endfacet
facet normal 0.7071067811867401 1.900169671151363e-14 0.7071067811863551
  outer loop
    vertex 26.616477212173425 67.70078350001255 17.846065450969043
    vertex 26.91649458892051 88.7007835000125 17.455075193297958
    vertex 26.61647721217396 88.70078350001253 17.846065450968084
  endloop
endfacet
facet normal 0.7933533402915214 2.5580719270286838e-14 0.6087614290083478
  outer loop
    vertex 26.91649458892051 88.7007835000125 17.455075193297958
    vertex 26.616477212173425 67.70078350001255 17.846065450969043
    vertex 26.916494588920166 67.70078350001269 17.455075193299418
  endloop
endfacet
facet normal 1.443158064140188e-14 -0.32428921665870447 0.9459579821318091
  outer loop
    vertex 23.134479320086932 67.17568597423063 18.59015418889747
    vertex 26.916494588920127 67.00878564540022 18.532938141336242
    vertex 26.91649458892021 67.17568597423063 18.590154188897376
  endloop
endfacet
facet normal 1.443158064140188e-14 -0.32428921665870447 0.9459579821318091
  outer loop
    vertex 26.916494588920127 67.00878564540022 18.532938141336242
    vertex 23.134479320086932 67.17568597423063 18.59015418889747
    vertex 23.13447932008688 67.00878564540022 18.532938141336317
  endloop
endfacet
facet normal 1.0 -2.8775126445377474e-14 -2.647394756376885e-14
  outer loop
    vertex 26.91649458892019 67.52475505099328 18.636206132610756
    vertex 26.916494588920166 67.70078350001269 17.455075193299418
    vertex 26.916494588920212 67.70078350001279 18.6242319521369
  endloop
endfacet
facet normal 1.0 -2.8775126445377474e-14 -2.647394756376885e-14
  outer loop
    vertex 26.916494588920166 67.70078350001269 17.455075193299418
    vertex 26.91649458892019 67.52475505099328 18.636206132610756
    vertex 26.916494588920127 67.70078350001253 16.65507519329942
  endloop
endfacet
facet normal 1.0 -2.8775126445377474e-14 -2.647394756376885e-14
  outer loop
    vertex 26.916494588920127 67.70078350001253 16.65507519329942
    vertex 26.91649458892019 67.52475505099328 18.636206132610756
    vertex 26.91649458892014 66.20078350001253 16.65507519329945
  endloop
endfacet
facet normal 1.0 -2.8775126445377474e-14 -2.647394756376885e-14
  outer loop
    vertex 26.91649458892014 66.20078350001253 16.65507519329945
    vertex 26.91649458892019 67.52475505099328 18.636206132610756
    vertex 26.916494588920223 67.34595251108924 18.624231952136928
  endloop
endfacet
facet normal 1.0 -2.8775126445377474e-14 -2.647394756376885e-14
  outer loop
    vertex 26.91649458892014 66.20078350001253 16.65507519329945
    vertex 26.916494588920223 67.34595251108924 18.624231952136928
    vertex 26.91649458892021 67.17568597423063 18.590154188897376
  endloop
endfacet
facet normal 1.0 -2.8775126445377474e-14 -2.647394756376885e-14
  outer loop
    vertex 26.91649458892014 66.20078350001253 16.65507519329945
    vertex 26.91649458892021 67.17568597423063 18.590154188897376
    vertex 26.916494588920127 67.00878564540022 18.532938141336242
  endloop
endfacet
facet normal 1.0 -2.8775126445377474e-14 -2.647394756376885e-14
  outer loop
    vertex 26.91649458892014 66.20078350001253 16.65507519329945
    vertex 26.916494588920127 67.00878564540022 18.532938141336242
    vertex 26.916494588920166 66.85092505959602 18.454138196464385
  endloop
endfacet
facet normal 1.0 -2.8775126445377474e-14 -2.647394756376885e-14
  outer loop
    vertex 26.91649458892014 66.20078350001253 16.65507519329945
    vertex 26.916494588920166 66.85092505959602 18.454138196464385
    vertex 26.91649458892014 66.7048810631445 18.355140484558202
  endloop
endfacet
facet normal 1.0 -2.8775126445377474e-14 -2.647394756376885e-14
  outer loop
    vertex 26.91649458892014 66.20078350001253 16.65507519329945
    vertex 26.91649458892014 66.7048810631445 18.355140484558202
    vertex 26.916494588920152 66.57322264267957 18.237686424675513
  endloop
endfacet
facet normal 1.0 -2.8775126445377474e-14 -2.647394756376885e-14
  outer loop
    vertex 26.91649458892014 66.20078350001253 16.65507519329945
    vertex 26.916494588920152 66.57322264267957 18.237686424675513
    vertex 26.916494588920123 66.45826573538959 18.10384209222726
  endloop
endfacet
facet normal 1.0 -2.8775126445377474e-14 -2.647394756376885e-14
  outer loop
    vertex 26.91649458892014 66.20078350001253 16.65507519329945
    vertex 26.916494588920123 66.45826573538959 18.10384209222726
    vertex 26.91649458892018 66.36203249052727 17.95596187568192
  endloop
endfacet
facet normal 1.0 -2.8775126445377474e-14 -2.647394756376885e-14
  outer loop
    vertex 26.91649458892014 66.20078350001253 16.65507519329945
    vertex 26.91649458892018 66.36203249052727 17.95596187568192
    vertex 26.916494588920123 66.28621569879866 17.796647061699662
  endloop
endfacet
facet normal 1.0 -2.8775126445377474e-14 -2.647394756376885e-14
  outer loop
    vertex 26.91649458892014 66.20078350001253 16.65507519329945
    vertex 26.916494588920123 66.28621569879866 17.796647061699662
    vertex 26.91649458892019 66.2321490153305 17.6287000772046
  endloop
endfacet
facet normal 1.0 -2.8775126445377474e-14 -2.647394756376885e-14
  outer loop
    vertex 26.91649458892014 66.20078350001253 16.65507519329945
    vertex 26.91649458892019 66.2321490153305 17.6287000772046
    vertex 26.91649458892018 66.20078350001268 17.455075193299447
  endloop
endfacet
facet normal 4.857185529434366e-14 0.0678672814968433 0.9976943580587336
  outer loop
    vertex 23.134479320086974 67.70078350001288 18.62423195213715
    vertex 26.91649458892019 67.52475505099328 18.636206132610756
    vertex 26.916494588920212 67.70078350001279 18.6242319521369
  endloop
endfacet
facet normal 4.857185529434366e-14 0.0678672814968433 0.9976943580587336
  outer loop
    vertex 26.91649458892019 67.52475505099328 18.636206132610756
    vertex 23.134479320086974 67.70078350001288 18.62423195213715
    vertex 23.134479320086943 67.52475505099339 18.636206132610827
  endloop
endfacet
facet normal 3.3654268146055264e-14 1.0 -6.159526563413293e-14
  outer loop
    vertex 23.134479320086974 67.70078350001288 18.62423195213715
    vertex 23.43449669683404 67.7007835000128 17.84606545096914
    vertex 23.134479320087216 67.70078350001266 17.455075193299592
  endloop
endfacet
facet normal 3.3654268146055264e-14 1.0 -6.159526563413293e-14
  outer loop
    vertex 23.43449669683404 67.7007835000128 17.84606545096914
    vertex 23.134479320086974 67.70078350001288 18.62423195213715
    vertex 23.90048695450372 67.7007835000126 18.203632351814516
  endloop
endfacet
facet normal 3.3654268146055264e-14 1.0 -6.159526563413293e-14
  outer loop
    vertex 23.90048695450372 67.7007835000126 18.203632351814516
    vertex 23.134479320086974 67.70078350001288 18.62423195213715
    vertex 24.443144103023133 67.70078350001262 18.428408302449707
  endloop
endfacet
facet normal 3.3654268146055264e-14 1.0 -6.159526563413293e-14
  outer loop
    vertex 24.443144103023133 67.70078350001262 18.428408302449707
    vertex 23.134479320086974 67.70078350001288 18.62423195213715
    vertex 25.02548695450377 67.70078350001262 18.50507519329924
  endloop
endfacet
facet normal 3.3654268146055264e-14 1.0 -6.159526563413293e-14
  outer loop
    vertex 25.02548695450377 67.70078350001262 18.50507519329924
    vertex 23.134479320086974 67.70078350001288 18.62423195213715
    vertex 26.916494588920212 67.70078350001279 18.6242319521369
  endloop
endfacet
facet normal 3.3654268146055264e-14 1.0 -6.159526563413293e-14
  outer loop
    vertex 26.616477212173425 67.70078350001255 17.846065450969043
    vertex 26.916494588920212 67.70078350001279 18.6242319521369
    vertex 26.916494588920166 67.70078350001269 17.455075193299418
  endloop
endfacet
facet normal 3.3654268146055264e-14 1.0 -6.159526563413293e-14
  outer loop
    vertex 26.916494588920212 67.70078350001279 18.6242319521369
    vertex 26.616477212173425 67.70078350001255 17.846065450969043
    vertex 26.150486954503688 67.70078350001259 18.20363235181421
  endloop
endfacet
facet normal 3.3654268146055264e-14 1.0 -6.159526563413293e-14
  outer loop
    vertex 26.916494588920212 67.70078350001279 18.6242319521369
    vertex 26.150486954503688 67.70078350001259 18.20363235181421
    vertex 25.60782980598441 67.70078350001259 18.428408302449608
  endloop
endfacet
facet normal 3.3654268146055264e-14 1.0 -6.159526563413293e-14
  outer loop
    vertex 26.916494588920212 67.70078350001279 18.6242319521369
    vertex 25.60782980598441 67.70078350001259 18.428408302449608
    vertex 25.02548695450377 67.70078350001262 18.50507519329924
  endloop
endfacet
facet normal -1.877883283695638e-14 -0.9518902189788186 0.30643924522237154
  outer loop
    vertex 26.91649458892019 66.2321490153305 17.6287000772046
    vertex 23.134479320086875 66.28621569879874 17.796647061699748
    vertex 23.13447932008689 66.23214901533052 17.62870007720475
  endloop
endfacet
facet normal -1.877883283695638e-14 -0.9518902189788186 0.30643924522237154
  outer loop
    vertex 23.134479320086875 66.28621569879874 17.796647061699748
    vertex 26.91649458892019 66.2321490153305 17.6287000772046
    vertex 26.916494588920123 66.28621569879866 17.796647061699662
  endloop
endfacet
facet normal 4.499856929269632e-15 -0.5610994085314864 0.8277484241879389
  outer loop
    vertex 23.13447932008691 66.85092505959612 18.45413819646448
    vertex 26.91649458892014 66.7048810631445 18.355140484558202
    vertex 26.916494588920166 66.85092505959602 18.454138196464385
  endloop
endfacet
facet normal 4.499856929269632e-15 -0.5610994085314864 0.8277484241879389
  outer loop
    vertex 26.91649458892014 66.7048810631445 18.355140484558202
    vertex 23.13447932008691 66.85092505959612 18.45413819646448
    vertex 23.13447932008687 66.70488106314451 18.355140484558298
  endloop
endfacet
facet normal 4.84641188926802e-05 -0.06580637702858266 0.9978324099735393
  outer loop
    vertex 26.91649458892019 67.52475505099328 18.636206132610756
    vertex 23.134479320086914 67.34869018617911 18.624779880375073
    vertex 26.916494588920223 67.34595251108924 18.624231952136928
  endloop
endfacet
facet normal 4.84641188926802e-05 -0.06580637702858266 0.9978324099735393
  outer loop
    vertex 23.134479320086914 67.34869018617911 18.624779880375073
    vertex 26.91649458892019 67.52475505099328 18.636206132610756
    vertex 23.134479320086943 67.52475505099339 18.636206132610827
  endloop
endfacet
facet normal -1.0 1.6924265933624576e-13 -7.784740527026614e-14
  outer loop
    vertex 23.134479320087216 67.70078350001266 17.455075193299592
    vertex 23.134479320086943 67.52475505099339 18.636206132610827
    vertex 23.134479320086974 67.70078350001288 18.62423195213715
  endloop
endfacet
facet normal -1.0 1.6924265933624576e-13 -7.784740527026614e-14
  outer loop
    vertex 23.134479320086943 67.52475505099339 18.636206132610827
    vertex 23.134479320087216 67.70078350001266 17.455075193299592
    vertex 23.13447932008718 67.7007835000126 16.655075193299595
  endloop
endfacet
facet normal -1.0 1.6924265933624576e-13 -7.784740527026614e-14
  outer loop
    vertex 23.134479320086943 67.52475505099339 18.636206132610827
    vertex 23.13447932008718 67.7007835000126 16.655075193299595
    vertex 23.134479320086783 66.20078350001253 16.655075193299645
  endloop
endfacet
facet normal -1.0 1.6924265933624576e-13 -7.784740527026614e-14
  outer loop
    vertex 23.134479320086943 67.52475505099339 18.636206132610827
    vertex 23.134479320086783 66.20078350001253 16.655075193299645
    vertex 23.134479320086914 67.34869018617911 18.624779880375073
  endloop
endfacet
facet normal -1.0 1.6924265933624576e-13 -7.784740527026614e-14
  outer loop
    vertex 23.134479320086914 67.34869018617911 18.624779880375073
    vertex 23.134479320086783 66.20078350001253 16.655075193299645
    vertex 23.134479320086932 67.17568597423063 18.59015418889747
  endloop
endfacet
facet normal -1.0 1.6924265933624576e-13 -7.784740527026614e-14
  outer loop
    vertex 23.134479320086932 67.17568597423063 18.59015418889747
    vertex 23.134479320086783 66.20078350001253 16.655075193299645
    vertex 23.13447932008688 67.00878564540022 18.532938141336317
  endloop
endfacet
facet normal -1.0 1.6924265933624576e-13 -7.784740527026614e-14
  outer loop
    vertex 23.13447932008688 67.00878564540022 18.532938141336317
    vertex 23.134479320086783 66.20078350001253 16.655075193299645
    vertex 23.13447932008691 66.85092505959612 18.45413819646448
  endloop
endfacet
facet normal -1.0 1.6924265933624576e-13 -7.784740527026614e-14
  outer loop
    vertex 23.13447932008691 66.85092505959612 18.45413819646448
    vertex 23.134479320086783 66.20078350001253 16.655075193299645
    vertex 23.13447932008687 66.70488106314451 18.355140484558298
  endloop
endfacet
facet normal -1.0 1.6924265933624576e-13 -7.784740527026614e-14
  outer loop
    vertex 23.13447932008687 66.70488106314451 18.355140484558298
    vertex 23.134479320086783 66.20078350001253 16.655075193299645
    vertex 23.134479320086864 66.57322264267968 18.237686424675598
  endloop
endfacet
facet normal -1.0 1.6924265933624576e-13 -7.784740527026614e-14
  outer loop
    vertex 23.134479320086864 66.57322264267968 18.237686424675598
    vertex 23.134479320086783 66.20078350001253 16.655075193299645
    vertex 23.134479320086882 66.4582657353896 18.103842092227346
  endloop
endfacet
facet normal -1.0 1.6924265933624576e-13 -7.784740527026614e-14
  outer loop
    vertex 23.134479320086882 66.4582657353896 18.103842092227346
    vertex 23.134479320086783 66.20078350001253 16.655075193299645
    vertex 23.134479320086857 66.36203249052738 17.955961875682004
  endloop
endfacet
facet normal -1.0 1.6924265933624576e-13 -7.784740527026614e-14
  outer loop
    vertex 23.134479320086857 66.36203249052738 17.955961875682004
    vertex 23.134479320086783 66.20078350001253 16.655075193299645
    vertex 23.134479320086875 66.28621569879874 17.796647061699748
  endloop
endfacet
facet normal -1.0 1.6924265933624576e-13 -7.784740527026614e-14
  outer loop
    vertex 23.134479320086875 66.28621569879874 17.796647061699748
    vertex 23.134479320086783 66.20078350001253 16.655075193299645
    vertex 23.13447932008689 66.23214901533052 17.62870007720475
  endloop
endfacet
facet normal -1.0 1.6924265933624576e-13 -7.784740527026614e-14
  outer loop
    vertex 23.13447932008689 66.23214901533052 17.62870007720475
    vertex 23.134479320086783 66.20078350001253 16.655075193299645
    vertex 23.13447932008682 66.2007835000126 17.455075193299646
  endloop
endfacet
facet normal -1.7436269101972965e-15 -0.6657063305890858 0.7462138308913974
  outer loop
    vertex 26.91649458892014 66.7048810631445 18.355140484558202
    vertex 23.134479320086864 66.57322264267968 18.237686424675598
    vertex 26.916494588920152 66.57322264267957 18.237686424675513
  endloop
endfacet
facet normal -1.7436269101972965e-15 -0.6657063305890858 0.7462138308913974
  outer loop
    vertex 23.134479320086864 66.57322264267968 18.237686424675598
    vertex 26.91649458892014 66.7048810631445 18.355140484558202
    vertex 23.13447932008687 66.70488106314451 18.355140484558298
  endloop
endfacet
facet normal -7.375960924093883e-14 -0.44662246842431247 -0.8947225104458778
  outer loop
    vertex 23.13447932008689 66.8509250595959 14.056012190134755
    vertex 26.916494588920166 67.00878564539998 13.977212245262665
    vertex 26.916494588920166 66.8509250595958 14.056012190134501
  endloop
endfacet
facet normal -7.375960924093883e-14 -0.44662246842431247 -0.8947225104458778
  outer loop
    vertex 26.916494588920166 67.00878564539998 13.977212245262665
    vertex 23.13447932008689 66.8509250595959 14.056012190134755
    vertex 23.134479320086868 67.0087856454 13.977212245262919
  endloop
endfacet
facet normal -6.690133941375981e-14 -0.7586031467390644 -0.6515529646602719
  outer loop
    vertex 26.916494588920155 66.4582657353894 14.406308294371664
    vertex 23.13447932008686 66.57322264267948 14.272463961923668
    vertex 26.916494588920116 66.57322264267938 14.272463961923403
  endloop
endfacet
facet normal -6.690133941375981e-14 -0.7586031467390644 -0.6515529646602719
  outer loop
    vertex 23.13447932008686 66.57322264267948 14.272463961923668
    vertex 26.916494588920155 66.4582657353894 14.406308294371664
    vertex 23.13447932008688 66.45826573538943 14.406308294371918
  endloop
endfacet
facet normal -7.066816276386079e-14 -0.6657063305891585 -0.7462138308913325
  outer loop
    vertex 26.916494588920116 66.57322264267938 14.272463961923403
    vertex 23.134479320086882 66.70488106314431 14.155009902040977
    vertex 26.916494588920152 66.70488106314428 14.155009902040723
  endloop
endfacet
facet normal -7.066816276386079e-14 -0.6657063305891585 -0.7462138308913325
  outer loop
    vertex 23.134479320086882 66.70488106314431 14.155009902040977
    vertex 26.916494588920116 66.57322264267938 14.272463961923403
    vertex 23.13447932008686 66.57322264267948 14.272463961923668
  endloop
endfacet
facet normal -7.692025857881862e-15 -0.7586031467390009 0.6515529646603458
  outer loop
    vertex 26.916494588920123 66.45826573538959 18.10384209222726
    vertex 23.134479320086864 66.57322264267968 18.237686424675598
    vertex 23.134479320086882 66.4582657353896 18.103842092227346
  endloop
endfacet
facet normal -7.692025857881862e-15 -0.7586031467390009 0.6515529646603458
  outer loop
    vertex 23.134479320086864 66.57322264267968 18.237686424675598
    vertex 26.916494588920123 66.45826573538959 18.10384209222726
    vertex 26.916494588920152 66.57322264267957 18.237686424675513
  endloop
endfacet
facet normal -1.2393967260431192e-14 -0.8381557557182001 0.5454309572773194
  outer loop
    vertex 26.91649458892018 66.36203249052727 17.95596187568192
    vertex 23.134479320086882 66.4582657353896 18.103842092227346
    vertex 23.134479320086857 66.36203249052738 17.955961875682004
  endloop
endfacet
facet normal -1.2393967260431192e-14 -0.8381557557182001 0.5454309572773194
  outer loop
    vertex 23.134479320086882 66.4582657353896 18.103842092227346
    vertex 26.91649458892018 66.36203249052727 17.95596187568192
    vertex 26.916494588920123 66.45826573538959 18.10384209222726
  endloop
endfacet
facet normal -8.061620559844068e-15 -0.9840714274064417 0.17777352379431696
  outer loop
    vertex 26.91649458892019 66.2321490153305 17.6287000772046
    vertex 23.13447932008682 66.2007835000126 17.455075193299646
    vertex 26.91649458892018 66.20078350001268 17.455075193299447
  endloop
endfacet
facet normal -8.061620559844068e-15 -0.9840714274064417 0.17777352379431696
  outer loop
    vertex 23.13447932008682 66.2007835000126 17.455075193299646
    vertex 26.91649458892019 66.2321490153305 17.6287000772046
    vertex 23.13447932008689 66.23214901533052 17.62870007720475
  endloop
endfacet
facet normal -4.35810007499085e-14 0.06786728149674603 -0.9976943580587401
  outer loop
    vertex 26.916494588920152 67.52475505099305 13.873944253988087
    vertex 23.13447932008696 67.70078350001262 13.885918434462017
    vertex 26.9164945889202 67.70078350001246 13.88591843446192
  endloop
endfacet
facet normal -4.35810007499085e-14 0.06786728149674603 -0.9976943580587401
  outer loop
    vertex 23.13447932008696 67.70078350001262 13.885918434462017
    vertex 26.916494588920152 67.52475505099305 13.873944253988087
    vertex 23.134479320086925 67.52475505099314 13.873944253988341
  endloop
endfacet
facet normal -1.68769489108627e-14 -0.902964787513867 0.4297145477058427
  outer loop
    vertex 26.916494588920123 66.28621569879866 17.796647061699662
    vertex 23.134479320086857 66.36203249052738 17.955961875682004
    vertex 23.134479320086875 66.28621569879874 17.796647061699748
  endloop
endfacet
facet normal -1.68769489108627e-14 -0.902964787513867 0.4297145477058427
  outer loop
    vertex 23.134479320086857 66.36203249052738 17.955961875682004
    vertex 26.916494588920123 66.28621569879866 17.796647061699662
    vertex 26.91649458892018 66.36203249052727 17.95596187568192
  endloop
endfacet
facet normal 9.549280577199972e-15 -0.44662246842422515 0.8947225104459213
  outer loop
    vertex 26.916494588920127 67.00878564540022 18.532938141336242
    vertex 23.13447932008691 66.85092505959612 18.45413819646448
    vertex 26.916494588920166 66.85092505959602 18.454138196464385
  endloop
endfacet
facet normal 9.549280577199972e-15 -0.44662246842422515 0.8947225104459213
  outer loop
    vertex 23.13447932008691 66.85092505959612 18.45413819646448
    vertex 26.916494588920127 67.00878564540022 18.532938141336242
    vertex 23.13447932008688 67.00878564540022 18.532938141336317
  endloop
endfacet
facet normal -4.731128859707803e-14 -0.9518902189788425 -0.3064392452222974
  outer loop
    vertex 26.91649458892022 66.23214901533036 14.881450309394353
    vertex 23.13447932008693 66.2862156987986 14.713503324899557
    vertex 26.916494588920212 66.28621569879849 14.713503324899293
  endloop
endfacet
facet normal -4.731128859707803e-14 -0.9518902189788425 -0.3064392452222974
  outer loop
    vertex 23.13447932008693 66.2862156987986 14.713503324899557
    vertex 26.91649458892022 66.23214901533036 14.881450309394353
    vertex 23.134479320086943 66.23214901533038 14.881450309394575
  endloop
endfacet
facet normal -7.400064742692034e-14 -0.32428921665881805 -0.9459579821317701
  outer loop
    vertex 26.916494588920166 67.00878564539998 13.977212245262665
    vertex 23.13447932008691 67.17568597423042 13.919996197701758
    vertex 26.916494588920173 67.17568597423039 13.919996197701494
  endloop
endfacet
facet normal -7.400064742692034e-14 -0.32428921665881805 -0.9459579821317701
  outer loop
    vertex 23.13447932008691 67.17568597423042 13.919996197701758
    vertex 26.916494588920166 67.00878564539998 13.977212245262665
    vertex 23.134479320086868 67.0087856454 13.977212245262919
  endloop
endfacet
facet normal 1.926929677451252e-14 -0.196251556061063 0.9805535817810324
  outer loop
    vertex 23.134479320086914 67.34869018617911 18.624779880375073
    vertex 26.91649458892021 67.17568597423063 18.590154188897376
    vertex 26.916494588920223 67.34595251108924 18.624231952136928
  endloop
endfacet
facet normal 1.926929677451252e-14 -0.196251556061063 0.9805535817810324
  outer loop
    vertex 26.91649458892021 67.17568597423063 18.590154188897376
    vertex 23.134479320086914 67.34869018617911 18.624779880375073
    vertex 23.134479320086932 67.17568597423063 18.59015418889747
  endloop
endfacet
facet normal -5.592688771038884e-14 -0.902964787513912 -0.42971454770574835
  outer loop
    vertex 26.916494588920212 66.28621569879849 14.713503324899293
    vertex 23.13447932008692 66.3620324905272 14.554188510917317
    vertex 26.9164945889202 66.36203249052711 14.554188510917063
  endloop
endfacet
facet normal -5.592688771038884e-14 -0.902964787513912 -0.42971454770574835
  outer loop
    vertex 23.13447932008692 66.3620324905272 14.554188510917317
    vertex 26.916494588920212 66.28621569879849 14.713503324899293
    vertex 23.13447932008693 66.2862156987986 14.713503324899557
  endloop
endfacet
facet normal -6.17548201125473e-14 -0.83815575571827 -0.5454309572772122
  outer loop
    vertex 26.9164945889202 66.36203249052711 14.554188510917063
    vertex 23.13447932008688 66.45826573538943 14.406308294371918
    vertex 26.916494588920155 66.4582657353894 14.406308294371664
  endloop
endfacet
facet normal -6.17548201125473e-14 -0.83815575571827 -0.5454309572772122
  outer loop
    vertex 23.13447932008688 66.45826573538943 14.406308294371918
    vertex 26.9164945889202 66.36203249052711 14.554188510917063
    vertex 23.13447932008692 66.3620324905272 14.554188510917317
  endloop
endfacet
facet normal -3.2171876268561e-15 -1.0 8.633456570721428e-14
  outer loop
    vertex 26.916494588920223 66.20078350001246 15.055075193299519
    vertex 23.13447932008696 66.20078350001253 15.65507519329967
    vertex 23.134479320086907 66.20078350001248 15.055075193299672
  endloop
endfacet
facet normal -3.2171876268561e-15 -1.0 8.633456570721428e-14
  outer loop
    vertex 23.13447932008696 66.20078350001253 15.65507519329967
    vertex 26.916494588920223 66.20078350001246 15.055075193299519
    vertex 26.91649458892025 66.20078350001252 15.655075193299519
  endloop
endfacet
facet normal -5.214783476865736e-14 -6.4355153683585194e-15 -1.0
  outer loop
    vertex 23.134479320086783 66.20078350001253 16.655075193299645
    vertex 26.916494588920127 67.70078350001253 16.65507519329942
    vertex 26.91649458892014 66.20078350001253 16.65507519329945
  endloop
endfacet
facet normal -5.214783476865736e-14 -6.4355153683585194e-15 -1.0
  outer loop
    vertex 26.916494588920127 67.70078350001253 16.65507519329942
    vertex 23.134479320086783 66.20078350001253 16.655075193299645
    vertex 26.91649458892014 72.20078350001252 16.655075193299414
  endloop
endfacet
facet normal -5.214783476865736e-14 -6.4355153683585194e-15 -1.0
  outer loop
    vertex 26.91649458892014 72.20078350001252 16.655075193299414
    vertex 23.134479320086783 66.20078350001253 16.655075193299645
    vertex 23.13447932008718 67.7007835000126 16.655075193299595
  endloop
endfacet
facet normal -5.214783476865736e-14 -6.4355153683585194e-15 -1.0
  outer loop
    vertex 23.134479320086797 72.20078350001253 16.655075193299613
    vertex 26.91649458892014 72.20078350001252 16.655075193299414
    vertex 23.13447932008718 67.7007835000126 16.655075193299595
  endloop
endfacet
facet normal -7.288231830598854e-14 -0.5610994085315505 -0.8277484241878954
  outer loop
    vertex 26.916494588920152 66.70488106314428 14.155009902040723
    vertex 23.13447932008689 66.8509250595959 14.056012190134755
    vertex 26.916494588920166 66.8509250595958 14.056012190134501
  endloop
endfacet
facet normal -7.288231830598854e-14 -0.5610994085315505 -0.8277484241878954
  outer loop
    vertex 23.13447932008689 66.8509250595959 14.056012190134755
    vertex 26.916494588920152 66.70488106314428 14.155009902040723
    vertex 23.134479320086882 66.70488106314431 14.155009902040977
  endloop
endfacet
facet normal 4.846411880051497e-05 -0.0658063770286797 -0.9978324099735328
  outer loop
    vertex 23.13447932008691 67.3486901861789 13.88537050622414
    vertex 26.916494588920152 67.52475505099305 13.873944253988087
    vertex 26.916494588920163 67.34595251108892 13.885918434461937
  endloop
endfacet
facet normal 4.846411880051497e-05 -0.0658063770286797 -0.9978324099735328
  outer loop
    vertex 26.916494588920152 67.52475505099305 13.873944253988087
    vertex 23.13447932008691 67.3486901861789 13.88537050622414
    vertex 23.134479320086925 67.52475505099314 13.873944253988341
  endloop
endfacet
facet normal 1.0 -2.604097770405904e-14 -5.708343064715539e-14
  outer loop
    vertex 26.91649458892025 66.20078350001252 15.655075193299519
    vertex 26.916494588920234 67.70078350001249 15.0550751932994
    vertex 26.916494588920262 67.70078350001253 15.6550751932994
  endloop
endfacet
facet normal 1.0 -2.604097770405904e-14 -5.708343064715539e-14
  outer loop
    vertex 26.916494588920234 67.70078350001249 15.0550751932994
    vertex 26.91649458892025 66.20078350001252 15.655075193299519
    vertex 26.916494588920152 67.52475505099305 13.873944253988087
  endloop
endfacet
facet normal 1.0 -2.604097770405904e-14 -5.708343064715539e-14
  outer loop
    vertex 26.916494588920152 67.52475505099305 13.873944253988087
    vertex 26.91649458892025 66.20078350001252 15.655075193299519
    vertex 26.916494588920163 67.34595251108892 13.885918434461937
  endloop
endfacet
facet normal 1.0 -2.604097770405904e-14 -5.708343064715539e-14
  outer loop
    vertex 26.916494588920163 67.34595251108892 13.885918434461937
    vertex 26.91649458892025 66.20078350001252 15.655075193299519
    vertex 26.916494588920173 67.17568597423039 13.919996197701494
  endloop
endfacet
facet normal 1.0 -2.604097770405904e-14 -5.708343064715539e-14
  outer loop
    vertex 26.916494588920173 67.17568597423039 13.919996197701494
    vertex 26.91649458892025 66.20078350001252 15.655075193299519
    vertex 26.916494588920166 67.00878564539998 13.977212245262665
  endloop
endfacet
facet normal 1.0 -2.604097770405904e-14 -5.708343064715539e-14
  outer loop
    vertex 26.916494588920166 67.00878564539998 13.977212245262665
    vertex 26.91649458892025 66.20078350001252 15.655075193299519
    vertex 26.916494588920166 66.8509250595958 14.056012190134501
  endloop
endfacet
facet normal 1.0 -2.604097770405904e-14 -5.708343064715539e-14
  outer loop
    vertex 26.916494588920166 66.8509250595958 14.056012190134501
    vertex 26.91649458892025 66.20078350001252 15.655075193299519
    vertex 26.916494588920152 66.70488106314428 14.155009902040723
  endloop
endfacet
facet normal 1.0 -2.604097770405904e-14 -5.708343064715539e-14
  outer loop
    vertex 26.916494588920152 66.70488106314428 14.155009902040723
    vertex 26.91649458892025 66.20078350001252 15.655075193299519
    vertex 26.916494588920116 66.57322264267938 14.272463961923403
  endloop
endfacet
facet normal 1.0 -2.604097770405904e-14 -5.708343064715539e-14
  outer loop
    vertex 26.916494588920116 66.57322264267938 14.272463961923403
    vertex 26.91649458892025 66.20078350001252 15.655075193299519
    vertex 26.916494588920155 66.4582657353894 14.406308294371664
  endloop
endfacet
facet normal 1.0 -2.604097770405904e-14 -5.708343064715539e-14
  outer loop
    vertex 26.916494588920155 66.4582657353894 14.406308294371664
    vertex 26.91649458892025 66.20078350001252 15.655075193299519
    vertex 26.9164945889202 66.36203249052711 14.554188510917063
  endloop
endfacet
facet normal 1.0 -2.604097770405904e-14 -5.708343064715539e-14
  outer loop
    vertex 26.9164945889202 66.36203249052711 14.554188510917063
    vertex 26.91649458892025 66.20078350001252 15.655075193299519
    vertex 26.916494588920212 66.28621569879849 14.713503324899293
  endloop
endfacet
facet normal 1.0 -2.604097770405904e-14 -5.708343064715539e-14
  outer loop
    vertex 26.916494588920212 66.28621569879849 14.713503324899293
    vertex 26.91649458892025 66.20078350001252 15.655075193299519
    vertex 26.91649458892022 66.23214901533036 14.881450309394353
  endloop
endfacet
facet normal 1.0 -2.604097770405904e-14 -5.708343064715539e-14
  outer loop
    vertex 26.91649458892022 66.23214901533036 14.881450309394353
    vertex 26.91649458892025 66.20078350001252 15.655075193299519
    vertex 26.916494588920223 66.20078350001246 15.055075193299519
  endloop
endfacet
facet normal 1.0 -2.604097770405904e-14 -5.708343064715539e-14
  outer loop
    vertex 26.916494588920152 67.52475505099305 13.873944253988087
    vertex 26.9164945889202 67.70078350001246 13.88591843446192
    vertex 26.916494588920234 67.70078350001249 15.0550751932994
  endloop
endfacet
facet normal -2.448181065092083e-14 -0.984071427406459 -0.177773523794221
  outer loop
    vertex 26.916494588920223 66.20078350001246 15.055075193299519
    vertex 23.134479320086943 66.23214901533038 14.881450309394575
    vertex 26.91649458892022 66.23214901533036 14.881450309394353
  endloop
endfacet
facet normal -2.448181065092083e-14 -0.984071427406459 -0.177773523794221
  outer loop
    vertex 23.134479320086943 66.23214901533038 14.881450309394575
    vertex 26.916494588920223 66.20078350001246 15.055075193299519
    vertex 23.134479320086907 66.20078350001248 15.055075193299672
  endloop
endfacet
facet normal -1.0 2.897639467892525e-14 5.341684106609458e-14
  outer loop
    vertex 23.134479320086925 67.52475505099314 13.873944253988341
    vertex 23.134479320086946 67.70078350001245 15.055075193299576
    vertex 23.13447932008696 67.70078350001262 13.885918434462017
  endloop
endfacet
facet normal -1.0 2.897639467892525e-14 5.341684106609458e-14
  outer loop
    vertex 23.134479320086946 67.70078350001245 15.055075193299576
    vertex 23.13447932008696 66.20078350001253 15.65507519329967
    vertex 23.134479320087017 67.7007835000125 15.655075193299574
  endloop
endfacet
facet normal -1.0 2.897639467892525e-14 5.341684106609458e-14
  outer loop
    vertex 23.13447932008696 66.20078350001253 15.65507519329967
    vertex 23.134479320086946 67.70078350001245 15.055075193299576
    vertex 23.134479320086925 67.52475505099314 13.873944253988341
  endloop
endfacet
facet normal -1.0 2.897639467892525e-14 5.341684106609458e-14
  outer loop
    vertex 23.13447932008696 66.20078350001253 15.65507519329967
    vertex 23.134479320086925 67.52475505099314 13.873944253988341
    vertex 23.13447932008691 67.3486901861789 13.88537050622414
  endloop
endfacet
facet normal -1.0 2.897639467892525e-14 5.341684106609458e-14
  outer loop
    vertex 23.13447932008696 66.20078350001253 15.65507519329967
    vertex 23.13447932008691 67.3486901861789 13.88537050622414
    vertex 23.13447932008691 67.17568597423042 13.919996197701758
  endloop
endfacet
facet normal -1.0 2.897639467892525e-14 5.341684106609458e-14
  outer loop
    vertex 23.13447932008696 66.20078350001253 15.65507519329967
    vertex 23.13447932008691 67.17568597423042 13.919996197701758
    vertex 23.134479320086868 67.0087856454 13.977212245262919
  endloop
endfacet
facet normal -1.0 2.897639467892525e-14 5.341684106609458e-14
  outer loop
    vertex 23.13447932008696 66.20078350001253 15.65507519329967
    vertex 23.134479320086868 67.0087856454 13.977212245262919
    vertex 23.13447932008689 66.8509250595959 14.056012190134755
  endloop
endfacet
facet normal -1.0 2.897639467892525e-14 5.341684106609458e-14
  outer loop
    vertex 23.13447932008696 66.20078350001253 15.65507519329967
    vertex 23.13447932008689 66.8509250595959 14.056012190134755
    vertex 23.134479320086882 66.70488106314431 14.155009902040977
  endloop
endfacet
facet normal -1.0 2.897639467892525e-14 5.341684106609458e-14
  outer loop
    vertex 23.13447932008696 66.20078350001253 15.65507519329967
    vertex 23.134479320086882 66.70488106314431 14.155009902040977
    vertex 23.13447932008686 66.57322264267948 14.272463961923668
  endloop
endfacet
facet normal -1.0 2.897639467892525e-14 5.341684106609458e-14
  outer loop
    vertex 23.13447932008696 66.20078350001253 15.65507519329967
    vertex 23.13447932008686 66.57322264267948 14.272463961923668
    vertex 23.13447932008688 66.45826573538943 14.406308294371918
  endloop
endfacet
facet normal -1.0 2.897639467892525e-14 5.341684106609458e-14
  outer loop
    vertex 23.13447932008696 66.20078350001253 15.65507519329967
    vertex 23.13447932008688 66.45826573538943 14.406308294371918
    vertex 23.13447932008692 66.3620324905272 14.554188510917317
  endloop
endfacet
facet normal -1.0 2.897639467892525e-14 5.341684106609458e-14
  outer loop
    vertex 23.13447932008696 66.20078350001253 15.65507519329967
    vertex 23.13447932008692 66.3620324905272 14.554188510917317
    vertex 23.13447932008693 66.2862156987986 14.713503324899557
  endloop
endfacet
facet normal -1.0 2.897639467892525e-14 5.341684106609458e-14
  outer loop
    vertex 23.13447932008696 66.20078350001253 15.65507519329967
    vertex 23.13447932008693 66.2862156987986 14.713503324899557
    vertex 23.134479320086943 66.23214901533038 14.881450309394575
  endloop
endfacet
facet normal -1.0 2.897639467892525e-14 5.341684106609458e-14
  outer loop
    vertex 23.13447932008696 66.20078350001253 15.65507519329967
    vertex 23.134479320086943 66.23214901533038 14.881450309394575
    vertex 23.134479320086907 66.20078350001248 15.055075193299672
  endloop
endfacet
facet normal 1.0 -1.2191262956418241e-14 -4.419449763424811e-14
  outer loop
    vertex 26.916494588920617 88.70078350001235 15.65507519329795
    vertex 26.916494588920234 67.70078350001249 15.0550751932994
    vertex 26.916494588920592 88.70078350001238 15.05507519329795
  endloop
endfacet
facet normal 1.0 -1.2191262956418241e-14 -4.419449763424811e-14
  outer loop
    vertex 26.916494588920234 67.70078350001249 15.0550751932994
    vertex 26.916494588920617 88.70078350001235 15.65507519329795
    vertex 26.91649458892025 72.20078350001252 15.655075193299485
  endloop
endfacet
facet normal 1.0 -1.2191262956418241e-14 -4.419449763424811e-14
  outer loop
    vertex 26.916494588920234 67.70078350001249 15.0550751932994
    vertex 26.91649458892025 72.20078350001252 15.655075193299485
    vertex 26.916494588920262 67.70078350001253 15.6550751932994
  endloop
endfacet
facet normal -1.0 1.2191262956418598e-14 4.8171166201452504e-14
  outer loop
    vertex 23.134479320087518 88.70078350001243 16.655075193298135
    vertex 23.134479320087216 67.70078350001266 17.455075193299592
    vertex 23.134479320087554 88.70078350001259 17.455075193298132
  endloop
endfacet
facet normal -1.0 1.2191262956418598e-14 4.8171166201452504e-14
  outer loop
    vertex 23.134479320087216 67.70078350001266 17.455075193299592
    vertex 23.134479320087518 88.70078350001243 16.655075193298135
    vertex 23.134479320086797 72.20078350001253 16.655075193299613
  endloop
endfacet
facet normal -1.0 1.2191262956418598e-14 4.8171166201452504e-14
  outer loop
    vertex 23.134479320087216 67.70078350001266 17.455075193299592
    vertex 23.134479320086797 72.20078350001253 16.655075193299613
    vertex 23.13447932008718 67.7007835000126 16.655075193299595
  endloop
endfacet
facet normal -3.2171876268559737e-15 -1.0 8.398459363842436e-14
  outer loop
    vertex 26.91649458892018 66.20078350001268 17.455075193299447
    vertex 23.134479320086783 66.20078350001253 16.655075193299645
    vertex 26.91649458892014 66.20078350001253 16.65507519329945
  endloop
endfacet
facet normal -3.2171876268559737e-15 -1.0 8.398459363842436e-14
  outer loop
    vertex 23.134479320086783 66.20078350001253 16.655075193299645
    vertex 26.91649458892018 66.20078350001268 17.455075193299447
    vertex 23.13447932008682 66.2007835000126 17.455075193299646
  endloop
endfacet
facet normal -1.0 1.2191262956418241e-14 4.419449763424811e-14
  outer loop
    vertex 23.134479320087287 88.70078350001228 15.055075193298126
    vertex 23.134479320086967 72.20078350001253 15.655075193299636
    vertex 23.13447932008735 88.70078350001234 15.655075193298124
  endloop
endfacet
facet normal -1.0 1.2191262956418241e-14 4.419449763424811e-14
  outer loop
    vertex 23.134479320086967 72.20078350001253 15.655075193299636
    vertex 23.134479320087287 88.70078350001228 15.055075193298126
    vertex 23.134479320086946 67.70078350001245 15.055075193299576
  endloop
endfacet
facet normal -1.0 1.2191262956418241e-14 4.419449763424811e-14
  outer loop
    vertex 23.134479320086967 72.20078350001253 15.655075193299636
    vertex 23.134479320086946 67.70078350001245 15.055075193299576
    vertex 23.134479320087017 67.7007835000125 15.655075193299574
  endloop
endfacet
facet normal 1.0 -1.2191262956418598e-14 -4.8171166201452504e-14
  outer loop
    vertex 26.916494588920166 67.70078350001269 17.455075193299418
    vertex 26.9164945889205 88.70078350001238 16.65507519329796
    vertex 26.91649458892051 88.7007835000125 17.455075193297958
  endloop
endfacet
facet normal 1.0 -1.2191262956418598e-14 -4.8171166201452504e-14
  outer loop
    vertex 26.9164945889205 88.70078350001238 16.65507519329796
    vertex 26.916494588920166 67.70078350001269 17.455075193299418
    vertex 26.91649458892014 72.20078350001252 16.655075193299414
  endloop
endfacet
facet normal 1.0 -1.2191262956418598e-14 -4.8171166201452504e-14
  outer loop
    vertex 26.91649458892014 72.20078350001252 16.655075193299414
    vertex 26.916494588920166 67.70078350001269 17.455075193299418
    vertex 26.916494588920127 67.70078350001253 16.65507519329942
  endloop
endfacet
facet normal -7.27628643796055e-14 -0.19625155606115857 -0.9805535817810133
  outer loop
    vertex 23.13447932008691 67.17568597423042 13.919996197701758
    vertex 26.916494588920163 67.34595251108892 13.885918434461937
    vertex 26.916494588920173 67.17568597423039 13.919996197701494
  endloop
endfacet
facet normal -7.27628643796055e-14 -0.19625155606115857 -0.9805535817810133
  outer loop
    vertex 26.916494588920163 67.34595251108892 13.885918434461937
    vertex 23.13447932008691 67.17568597423042 13.919996197701758
    vertex 23.13447932008691 67.3486901861789 13.88537050622414
  endloop
endfacet
facet normal 4.0217829067045e-14 6.4355153683584816e-15 1.0
  outer loop
    vertex 23.134479320086967 72.20078350001253 15.655075193299636
    vertex 23.134479320087017 67.7007835000125 15.655075193299574
    vertex 26.91649458892025 72.20078350001252 15.655075193299485
  endloop
endfacet
facet normal 4.0217829067045e-14 6.4355153683584816e-15 1.0
  outer loop
    vertex 26.916494588920262 67.70078350001253 15.6550751932994
    vertex 23.13447932008696 66.20078350001253 15.65507519329967
    vertex 26.91649458892025 66.20078350001252 15.655075193299519
  endloop
endfacet
facet normal 4.0217829067045e-14 6.4355153683584816e-15 1.0
  outer loop
    vertex 23.13447932008696 66.20078350001253 15.65507519329967
    vertex 26.916494588920262 67.70078350001253 15.6550751932994
    vertex 26.91649458892025 72.20078350001252 15.655075193299485
  endloop
endfacet
facet normal 4.0217829067045e-14 6.4355153683584816e-15 1.0
  outer loop
    vertex 23.13447932008696 66.20078350001253 15.65507519329967
    vertex 26.91649458892025 72.20078350001252 15.655075193299485
    vertex 23.134479320087017 67.7007835000125 15.655075193299574
  endloop
endfacet
facet normal 1.0 -5.087865818874093e-15 -4.951558701882302e-14
  outer loop
    vertex 29.525486954504206 93.60078350001258 16.25507519329789
    vertex 29.372153172804907 88.70078350001252 15.090389490337003
    vertex 29.372153172804943 93.60078350001254 15.090389490336573
  endloop
endfacet
facet normal 0.9659258262890588 -1.3019478156183895e-14 -0.25881904510255627
  outer loop
    vertex 29.372153172804907 88.70078350001252 15.090389490337003
    vertex 29.525486954504206 93.60078350001258 16.25507519329789
    vertex 29.525486954504178 88.70078350001249 16.25507519329844
  endloop
endfacet
facet normal 0.9659258262890588 -1.3019478156183895e-14 -0.25881904510255627
  outer loop
    vertex 29.372153172804907 88.70078350001252 15.090389490337003
    vertex 28.922601271534056 93.6007835000123 14.005075193298094
    vertex 29.372153172804943 93.60078350001254 15.090389490336573
  endloop
endfacet
facet normal 0.8660254037844412 8.851717669727558e-16 -0.4999999999999959
  outer loop
    vertex 28.922601271534056 93.6007835000123 14.005075193298094
    vertex 29.372153172804907 88.70078350001252 15.090389490337003
    vertex 28.922601271534 88.7007835000123 14.005075193298065
  endloop
endfacet
facet normal 1.0 -1.1427065970307766e-14 1.267751123450906e-13
  outer loop
    vertex 26.9164945889205 88.70078350001238 16.65507519329796
    vertex 26.91649458892025 72.20078350001252 15.655075193299485
    vertex 26.916494588920617 88.70078350001235 15.65507519329795
  endloop
endfacet
facet normal 1.0 -1.1427065970307766e-14 1.267751123450906e-13
  outer loop
    vertex 26.91649458892025 72.20078350001252 15.655075193299485
    vertex 26.9164945889205 88.70078350001238 16.65507519329796
    vertex 26.91649458892014 72.20078350001252 16.655075193299414
  endloop
endfacet
facet normal -3.2171876268596467e-15 -1.0 6.435515368358551e-15
  outer loop
    vertex 26.91649458892025 72.20078350001252 15.655075193299485
    vertex 23.134479320086797 72.20078350001253 16.655075193299613
    vertex 23.134479320086967 72.20078350001253 15.655075193299636
  endloop
endfacet
facet normal -3.2171876268596467e-15 -1.0 6.435515368358551e-15
  outer loop
    vertex 23.134479320086797 72.20078350001253 16.655075193299613
    vertex 26.91649458892025 72.20078350001252 15.655075193299485
    vertex 26.91649458892014 72.20078350001252 16.655075193299414
  endloop
endfacet
facet normal -1.0 1.9942403815396745e-14 6.874256377824258e-14
  outer loop
    vertex 23.13447932008735 88.70078350001234 15.655075193298124
    vertex 23.134479320086797 72.20078350001253 16.655075193299613
    vertex 23.134479320087518 88.70078350001243 16.655075193298135
  endloop
endfacet
facet normal -1.0 1.9942403815396745e-14 6.874256377824258e-14
  outer loop
    vertex 23.134479320086797 72.20078350001253 16.655075193299613
    vertex 23.13447932008735 88.70078350001234 15.655075193298124
    vertex 23.134479320086967 72.20078350001253 15.655075193299636
  endloop
endfacet
facet normal 0.25881904510243653 -1.1095738766745974e-13 -0.965925826289091
  outer loop
    vertex 26.190172657465173 88.7007835000123 11.90840897499761
    vertex 25.025486954504057 93.60078350001234 11.75507519329808
    vertex 26.190172657465347 93.6007835000123 11.908408974997167
  endloop
endfacet
facet normal -2.9269545335914755e-14 -8.587318537926075e-14 -1.0
  outer loop
    vertex 25.025486954504057 93.60078350001234 11.75507519329808
    vertex 26.190172657465173 88.7007835000123 11.90840897499761
    vertex 25.025486954503915 88.70078350001236 11.755075193298431
  endloop
endfacet
facet normal 0.9659258262890751 -3.657533153989091e-16 0.2588190451024954
  outer loop
    vertex 29.372153172805014 88.70078350001262 17.41976089625956
    vertex 29.525486954504206 93.60078350001258 16.25507519329789
    vertex 29.372153172805096 93.60078350001265 17.41976089625909
  endloop
endfacet
facet normal 1.0 -5.087865818874093e-15 -4.951558701882302e-14
  outer loop
    vertex 29.525486954504206 93.60078350001258 16.25507519329789
    vertex 29.372153172805014 88.70078350001262 17.41976089625956
    vertex 29.525486954504178 88.70078350001249 16.25507519329844
  endloop
endfacet
endsolid 120-channel device connector
