solid hinge_pin
facet normal -0.793353340291202 -0.608761429008764 1.28064285563337e-014
outer loop
vertex 2.9090097423303 2.90900974233033 15.5000000000002
vertex 2.55144284148485 3.375 2.50000000000003
vertex 2.90900974233029 2.90900974233029 2.50000000000016
endloop
endfacet
facet normal -0.793353340291202 -0.608761429008764 1.28064285563337e-014
outer loop
vertex 2.55144284148485 3.375 2.50000000000003
vertex 2.9090097423303 2.90900974233033 15.5000000000002
vertex 2.55144284148515 3.37500000000009 15.5000000000001
endloop
endfacet
facet normal 0.923879532511224 -0.382683432365241 3.20615133295293e-015
outer loop
vertex 6.44855715851507 3.37500000000004 2.50000000000004
vertex 6.67333310915052 3.91765714851931 15.4999999999999
vertex 6.44855715851501 3.375 15.4999999999999
endloop
endfacet
facet normal 0.923879532511224 -0.382683432365241 3.20615133295293e-015
outer loop
vertex 6.67333310915052 3.91765714851931 15.4999999999999
vertex 6.44855715851507 3.37500000000004 2.50000000000004
vertex 6.67333310915055 3.91765714851927 2.50000000000004
endloop
endfacet
facet normal 0.991444861373801 0.130526192220126 -2.2027153229418e-014
outer loop
vertex 6.75 4.50000000000004 2.50000000000008
vertex 6.67333310915066 5.08234285148065 15.5
vertex 6.75000000000044 4.49999999999997 15.5000000000001
endloop
endfacet
facet normal 0.991444861373801 0.130526192220126 -2.2027153229418e-014
outer loop
vertex 6.67333310915066 5.08234285148065 15.5
vertex 6.75 4.50000000000004 2.50000000000008
vertex 6.67333310915051 5.08234285148065 2.50000000000009
endloop
endfacet
facet normal -0.991444861373805 -0.130526192220091 1.93788800970447e-014
outer loop
vertex 2.32666689084978 3.91765714851938 15.5000000000002
vertex 2.24999999999992 4.49999999999997 2.49999999999999
vertex 2.32666689084957 3.91765714851934 2.49999999999999
endloop
endfacet
facet normal -0.991444861373805 -0.130526192220091 1.93788800970447e-014
outer loop
vertex 2.24999999999992 4.49999999999997 2.49999999999999
vertex 2.32666689084978 3.91765714851938 15.5000000000002
vertex 2.2500000000002 4.50000000000001 15.5000000000001
endloop
endfacet
facet normal -0.991444861373814 0.130526192220027 2.08411903594179e-014
outer loop
vertex 0.153333781699207 5.6646857029613 2.50000000000017
vertex 0.0 4.50000000000001 1.04338759854272e-013
vertex 6.76791955811495e-014 4.49999999999997 2.50000000000012
endloop
endfacet
facet normal -0.991444861373814 0.130526192220027 2.08411903594179e-014
outer loop
vertex 0.0 4.50000000000001 1.04338759854272e-013
vertex 0.153333781699207 5.6646857029613 2.50000000000017
vertex 0.153333781699184 5.66468570296137 1.52278190057586e-013
endloop
endfacet
facet normal 0.79335334029124 -0.608761429008714 2.06065060472451e-014
outer loop
vertex 8.39711431703019 2.24999999999998 7.33191285462453e-014
vertex 7.68198051533967 1.31801948466057 2.50000000000012
vertex 7.68198051533946 1.3180194846605 1.69197988952874e-013
endloop
endfacet
facet normal 0.79335334029124 -0.608761429008714 2.06065060472451e-014
outer loop
vertex 7.68198051533967 1.31801948466057 2.50000000000012
vertex 8.39711431703019 2.24999999999998 7.33191285462453e-014
vertex 8.39711431702999 2.25000000000008 2.50000000000001
endloop
endfacet
facet normal -0.608761429008759 0.793353340291206 -9.88224028136935e-016
outer loop
vertex 1.31801948466061 7.68198051533946 1.04338759854272e-013
vertex 2.24999999999985 8.39711431702987 2.50000000000003
vertex 2.25000000000017 8.39711431702997 4.51194637207664e-014
endloop
endfacet
facet normal -0.608761429008759 0.793353340291206 -9.88224028136935e-016
outer loop
vertex 2.24999999999985 8.39711431702987 2.50000000000003
vertex 1.31801948466061 7.68198051533946 1.04338759854272e-013
vertex 1.31801948466057 7.68198051533928 2.50000000000013
endloop
endfacet
facet normal 0.608761429008668 -0.793353340291276 -5.87527995359392e-014
outer loop
vertex 7.68198051533946 1.3180194846605 1.69197988952874e-013
vertex 6.7500000000002 0.602885682970063 2.50000000000014
vertex 6.74999999999986 0.602885682970086 1.46638257092491e-013
endloop
endfacet
facet normal 0.608761429008668 -0.793353340291276 -5.87527995359392e-014
outer loop
vertex 6.7500000000002 0.602885682970063 2.50000000000014
vertex 7.68198051533946 1.3180194846605 1.69197988952874e-013
vertex 7.68198051533967 1.31801948466057 2.50000000000012
endloop
endfacet
facet normal 2.36963730773496e-015 -8.35801230801094e-016 -1.0
outer loop
vertex 0.153333781699184 5.66468570296137 1.52278190057586e-013
vertex 0.15333378169923 3.33531429703866 1.04338759854272e-013
vertex 0.0 4.50000000000001 1.04338759854272e-013
endloop
endfacet
facet normal 2.36963730773496e-015 -8.35801230801094e-016 -1.0
outer loop
vertex 0.15333378169923 3.33531429703866 1.04338759854272e-013
vertex 0.153333781699184 5.66468570296137 1.52278190057586e-013
vertex 0.602885682970041 6.75 6.20392626160537e-014
endloop
endfacet
facet normal 2.36963730773496e-015 -8.35801230801094e-016 -1.0
outer loop
vertex 0.15333378169923 3.33531429703866 1.04338759854272e-013
vertex 0.602885682970041 6.75 6.20392626160537e-014
vertex 0.602885682970041 2.25000000000003 1.57918123022682e-013
endloop
endfacet
facet normal 2.36963730773496e-015 -8.35801230801094e-016 -1.0
outer loop
vertex 0.602885682970041 2.25000000000003 1.57918123022682e-013
vertex 0.602885682970041 6.75 6.20392626160537e-014
vertex 1.31801948466061 7.68198051533946 1.04338759854272e-013
endloop
endfacet
facet normal 2.36963730773496e-015 -8.35801230801094e-016 -1.0
outer loop
vertex 0.602885682970041 2.25000000000003 1.57918123022682e-013
vertex 1.31801948466061 7.68198051533946 1.04338759854272e-013
vertex 1.31801948466045 1.31801948466057 7.89590615113411e-014
endloop
endfacet
facet normal 2.36963730773496e-015 -8.35801230801094e-016 -1.0
outer loop
vertex 1.31801948466045 1.31801948466057 7.89590615113411e-014
vertex 1.31801948466061 7.68198051533946 1.04338759854272e-013
vertex 2.24999999999998 0.602885682970086 8.74189609589848e-014
endloop
endfacet
facet normal 2.36963730773496e-015 -8.35801230801094e-016 -1.0
outer loop
vertex 2.24999999999998 0.602885682970086 8.74189609589848e-014
vertex 1.31801948466061 7.68198051533946 1.04338759854272e-013
vertex 2.25000000000017 8.39711431702997 4.51194637207664e-014
endloop
endfacet
facet normal 2.36963730773496e-015 -8.35801230801094e-016 -1.0
outer loop
vertex 2.24999999999998 0.602885682970086 8.74189609589848e-014
vertex 2.25000000000017 8.39711431702997 4.51194637207664e-014
vertex 3.33531429703886 0.153333781699207 4.79394302033143e-014
endloop
endfacet
facet normal 2.36963730773496e-015 -8.35801230801094e-016 -1.0
outer loop
vertex 3.33531429703886 0.153333781699207 4.79394302033143e-014
vertex 2.25000000000017 8.39711431702997 4.51194637207664e-014
vertex 3.33531429703825 8.84666621830084 0.0
endloop
endfacet
facet normal 2.36963730773496e-015 -8.35801230801094e-016 -1.0
outer loop
vertex 3.33531429703886 0.153333781699207 4.79394302033143e-014
vertex 3.33531429703825 8.84666621830084 0.0
vertex 4.49999999999983 8.99999999999998 8.45989944764369e-015
endloop
endfacet
facet normal 2.36963730773496e-015 -8.35801230801094e-016 -1.0
outer loop
vertex 3.33531429703886 0.153333781699207 4.79394302033143e-014
vertex 4.49999999999983 8.99999999999998 8.45989944764369e-015
vertex 4.50000000000004 6.76791955811495e-014 0.0
endloop
endfacet
facet normal 2.36963730773496e-015 -8.35801230801094e-016 -1.0
outer loop
vertex 4.50000000000004 6.76791955811495e-014 0.0
vertex 4.49999999999983 8.99999999999998 8.45989944764369e-015
vertex 5.66468570296128 8.84666621830069 8.1779027993889e-014
endloop
endfacet
facet normal 2.36963730773496e-015 -8.35801230801094e-016 -1.0
outer loop
vertex 4.50000000000004 6.76791955811495e-014 0.0
vertex 5.66468570296128 8.84666621830069 8.1779027993889e-014
vertex 5.66468570296137 0.153333781699252 4.51194637207664e-014
endloop
endfacet
facet normal 2.36963730773496e-015 -8.35801230801094e-016 -1.0
outer loop
vertex 5.66468570296137 0.153333781699252 4.51194637207664e-014
vertex 5.66468570296128 8.84666621830069 8.1779027993889e-014
vertex 6.75000000000027 8.39711431702983 1.88937754330709e-013
endloop
endfacet
facet normal 2.36963730773496e-015 -8.35801230801094e-016 -1.0
outer loop
vertex 5.66468570296137 0.153333781699252 4.51194637207664e-014
vertex 6.75000000000027 8.39711431702983 1.88937754330709e-013
vertex 6.74999999999986 0.602885682970086 1.46638257092491e-013
endloop
endfacet
facet normal 2.36963730773496e-015 -8.35801230801094e-016 -1.0
outer loop
vertex 6.74999999999986 0.602885682970086 1.46638257092491e-013
vertex 6.75000000000027 8.39711431702983 1.88937754330709e-013
vertex 7.68198051533946 1.3180194846605 1.69197988952874e-013
endloop
endfacet
facet normal 2.36963730773496e-015 -8.35801230801094e-016 -1.0
outer loop
vertex 7.68198051533946 1.3180194846605 1.69197988952874e-013
vertex 6.75000000000027 8.39711431702983 1.88937754330709e-013
vertex 7.68198051533964 7.6819805153394 7.61390950287932e-014
endloop
endfacet
facet normal 2.36963730773496e-015 -8.35801230801094e-016 -1.0
outer loop
vertex 7.68198051533946 1.3180194846605 1.69197988952874e-013
vertex 7.68198051533964 7.6819805153394 7.61390950287932e-014
vertex 8.39711431703019 2.24999999999998 7.33191285462453e-014
endloop
endfacet
facet normal 2.36963730773496e-015 -8.35801230801094e-016 -1.0
outer loop
vertex 8.39711431703019 2.24999999999998 7.33191285462453e-014
vertex 7.68198051533964 7.6819805153394 7.61390950287932e-014
vertex 8.39711431703021 6.74999999999995 1.66378022470326e-013
endloop
endfacet
facet normal 2.36963730773496e-015 -8.35801230801094e-016 -1.0
outer loop
vertex 8.39711431703019 2.24999999999998 7.33191285462453e-014
vertex 8.39711431703021 6.74999999999995 1.66378022470326e-013
vertex 8.84666621830091 3.33531429703868 1.18438592267012e-013
endloop
endfacet
facet normal 2.36963730773496e-015 -8.35801230801094e-016 -1.0
outer loop
vertex 8.84666621830091 3.33531429703868 1.18438592267012e-013
vertex 8.39711431703021 6.74999999999995 1.66378022470326e-013
vertex 8.84666621830096 5.6646857029613 9.58788604066285e-014
endloop
endfacet
facet normal 2.36963730773496e-015 -8.35801230801094e-016 -1.0
outer loop
vertex 8.84666621830091 3.33531429703868 1.18438592267012e-013
vertex 8.84666621830096 5.6646857029613 9.58788604066285e-014
vertex 9.00000000000005 4.49999999999999 9.02389274415327e-014
endloop
endfacet
facet normal 0.793353340291153 0.608761429008828 8.83506862386556e-014
outer loop
vertex 7.68198051533964 7.6819805153394 7.61390950287932e-014
vertex 8.39711431703006 6.74999999999995 2.50000000000012
vertex 8.39711431703021 6.74999999999995 1.66378022470326e-013
endloop
endfacet
facet normal 0.793353340291153 0.608761429008828 8.83506862386556e-014
outer loop
vertex 8.39711431703006 6.74999999999995 2.50000000000012
vertex 7.68198051533964 7.6819805153394 7.61390950287932e-014
vertex 7.68198051533931 7.68198051533933 2.5
endloop
endfacet
facet normal -0.991444861373818 0.130526192219991 1.9559740545327e-014
outer loop
vertex 2.2500000000002 4.50000000000001 15.5000000000001
vertex 2.3266668908495 5.08234285148065 2.50000000000005
vertex 2.24999999999992 4.49999999999997 2.49999999999999
endloop
endfacet
facet normal -0.991444861373818 0.130526192219991 1.9559740545327e-014
outer loop
vertex 2.3266668908495 5.08234285148065 2.50000000000005
vertex 2.2500000000002 4.50000000000001 15.5000000000001
vertex 2.32666689084973 5.08234285148065 15.5000000000002
endloop
endfacet
facet normal -0.382683432365161 0.923879532511257 4.89998747507261e-014
outer loop
vertex 2.25000000000017 8.39711431702997 4.51194637207664e-014
vertex 3.3353142970385 8.84666621830064 2.50000000000012
vertex 3.33531429703825 8.84666621830084 0.0
endloop
endfacet
facet normal -0.382683432365161 0.923879532511257 4.89998747507261e-014
outer loop
vertex 3.3353142970385 8.84666621830064 2.50000000000012
vertex 2.25000000000017 8.39711431702997 4.51194637207664e-014
vertex 2.24999999999985 8.39711431702987 2.50000000000003
endloop
endfacet
facet normal 0.130526192220051 0.99144486137381 1.28268692269629e-014
outer loop
vertex 4.49999999999983 8.99999999999985 2.50000000000012
vertex 5.66468570296128 8.84666621830069 8.1779027993889e-014
vertex 4.49999999999983 8.99999999999998 8.45989944764369e-015
endloop
endfacet
facet normal 0.130526192220051 0.99144486137381 1.28268692269629e-014
outer loop
vertex 5.66468570296128 8.84666621830069 8.1779027993889e-014
vertex 4.49999999999983 8.99999999999985 2.50000000000012
vertex 5.66468570296173 8.84666621830069 2.50000000000011
endloop
endfacet
facet normal -0.793353340291284 -0.608761429008657 6.30652506398943e-014
outer loop
vertex 1.31801948466061 1.31801948466061 2.50000000000008
vertex 0.602885682970041 2.25000000000003 1.57918123022682e-013
vertex 1.31801948466045 1.31801948466057 7.89590615113411e-014
endloop
endfacet
facet normal -0.793353340291284 -0.608761429008657 6.30652506398943e-014
outer loop
vertex 0.602885682970041 2.25000000000003 1.57918123022682e-013
vertex 1.31801948466061 1.31801948466061 2.50000000000008
vertex 0.602885682970289 2.24999999999998 2.50000000000013
endloop
endfacet
facet normal -0.99144486137381 -0.130526192220053 1.19453374835797e-014
outer loop
vertex 6.76791955811495e-014 4.49999999999997 2.50000000000012
vertex 0.15333378169923 3.33531429703866 1.04338759854272e-013
vertex 0.15333378169923 3.33531429703863 2.5000000000001
endloop
endfacet
facet normal -0.99144486137381 -0.130526192220053 1.19453374835797e-014
outer loop
vertex 0.15333378169923 3.33531429703866 1.04338759854272e-013
vertex 6.76791955811495e-014 4.49999999999997 2.50000000000012
vertex 0.0 4.50000000000001 1.04338759854272e-013
endloop
endfacet
facet normal 0.991444861373793 -0.130526192220187 -1.55978342154075e-014
outer loop
vertex 6.75 4.50000000000004 2.50000000000008
vertex 6.67333310915052 3.91765714851931 15.4999999999999
vertex 6.67333310915055 3.91765714851927 2.50000000000004
endloop
endfacet
facet normal 0.991444861373793 -0.130526192220187 -1.55978342154075e-014
outer loop
vertex 6.67333310915052 3.91765714851931 15.4999999999999
vertex 6.75 4.50000000000004 2.50000000000008
vertex 6.75000000000044 4.49999999999997 15.5000000000001
endloop
endfacet
facet normal 0.608761429008729 0.793353340291229 9.68386901823139e-014
outer loop
vertex 6.75000000000027 8.39711431702983 1.88937754330709e-013
vertex 7.68198051533931 7.68198051533933 2.5
vertex 7.68198051533964 7.6819805153394 7.61390950287932e-014
endloop
endfacet
facet normal 0.608761429008729 0.793353340291229 9.68386901823139e-014
outer loop
vertex 7.68198051533931 7.68198051533933 2.5
vertex 6.75000000000027 8.39711431702983 1.88937754330709e-013
vertex 6.74999999999989 8.39711431702983 2.50000000000009
endloop
endfacet
facet normal 0.793353340291235 0.608761429008721 -2.43352107694823e-015
outer loop
vertex 6.09099025766976 6.09099025766976 2.50000000000007
vertex 6.44855715851506 5.62500000000003 15.5
vertex 6.44855715851509 5.62499999999994 2.50000000000007
endloop
endfacet
facet normal 0.793353340291235 0.608761429008721 -2.43352107694823e-015
outer loop
vertex 6.44855715851506 5.62500000000003 15.5
vertex 6.09099025766976 6.09099025766976 2.50000000000007
vertex 6.09099025766984 6.09099025766972 15.5
endloop
endfacet
facet normal -0.130526192220027 0.991444861373814 7.134420973032e-014
outer loop
vertex 3.3353142970385 8.84666621830064 2.50000000000012
vertex 4.49999999999983 8.99999999999998 8.45989944764369e-015
vertex 3.33531429703825 8.84666621830084 0.0
endloop
endfacet
facet normal -0.130526192220027 0.991444861373814 7.134420973032e-014
outer loop
vertex 4.49999999999983 8.99999999999998 8.45989944764369e-015
vertex 3.3353142970385 8.84666621830064 2.50000000000012
vertex 4.49999999999983 8.99999999999985 2.50000000000012
endloop
endfacet
facet normal -0.793353340291201 0.608761429008765 1.75543291662577e-014
outer loop
vertex 1.31801948466057 7.68198051533928 2.50000000000013
vertex 0.602885682970041 6.75 6.20392626160537e-014
vertex 0.602885682970041 6.74999999999995 2.5000000000001
endloop
endfacet
facet normal -0.793353340291201 0.608761429008765 1.75543291662577e-014
outer loop
vertex 0.602885682970041 6.75 6.20392626160537e-014
vertex 1.31801948466057 7.68198051533928 2.50000000000013
vertex 1.31801948466061 7.68198051533946 1.04338759854272e-013
endloop
endfacet
facet normal 0.923879532511309 0.382683432365037 5.41810383729769e-014
outer loop
vertex 8.39711431703021 6.74999999999995 1.66378022470326e-013
vertex 8.84666621830082 5.66468570296133 2.50000000000007
vertex 8.84666621830096 5.6646857029613 9.58788604066285e-014
endloop
endfacet
facet normal 0.923879532511309 0.382683432365037 5.41810383729769e-014
outer loop
vertex 8.84666621830082 5.66468570296133 2.50000000000007
vertex 8.39711431703021 6.74999999999995 1.66378022470326e-013
vertex 8.39711431703006 6.74999999999995 2.50000000000012
endloop
endfacet
facet normal -0.923879532511282 0.382683432365102 1.10743425057965e-014
outer loop
vertex 0.602885682970041 6.74999999999995 2.5000000000001
vertex 0.153333781699184 5.66468570296137 1.52278190057586e-013
vertex 0.153333781699207 5.6646857029613 2.50000000000017
endloop
endfacet
facet normal -0.923879532511282 0.382683432365102 1.10743425057965e-014
outer loop
vertex 0.153333781699184 5.66468570296137 1.52278190057586e-013
vertex 0.602885682970041 6.74999999999995 2.5000000000001
vertex 0.602885682970041 6.75 6.20392626160537e-014
endloop
endfacet
facet normal -0.923879532511337 -0.382683432364968 2.04305467669189e-014
outer loop
vertex 2.55144284148515 3.37500000000009 15.5000000000001
vertex 2.32666689084957 3.91765714851934 2.49999999999999
vertex 2.55144284148485 3.375 2.50000000000003
endloop
endfacet
facet normal -0.923879532511337 -0.382683432364968 2.04305467669189e-014
outer loop
vertex 2.32666689084957 3.91765714851934 2.49999999999999
vertex 2.55144284148515 3.37500000000009 15.5000000000001
vertex 2.32666689084978 3.91765714851938 15.5000000000002
endloop
endfacet
facet normal 0.382683432365128 0.923879532511271 -7.26525379805846e-015
outer loop
vertex 5.66468570296173 8.84666621830069 2.50000000000011
vertex 6.75000000000027 8.39711431702983 1.88937754330709e-013
vertex 5.66468570296128 8.84666621830069 8.1779027993889e-014
endloop
endfacet
facet normal 0.382683432365128 0.923879532511271 -7.26525379805846e-015
outer loop
vertex 6.75000000000027 8.39711431702983 1.88937754330709e-013
vertex 5.66468570296173 8.84666621830069 2.50000000000011
vertex 6.74999999999989 8.39711431702983 2.50000000000009
endloop
endfacet
facet normal 5.32127166300919e-015 1.35151384930722e-015 1.0
outer loop
vertex 0.15333378169923 3.33531429703863 2.5000000000001
vertex 0.153333781699207 5.6646857029613 2.50000000000017
vertex 6.76791955811495e-014 4.49999999999997 2.50000000000012
endloop
endfacet
facet normal 5.32127166300919e-015 1.35151384930722e-015 1.0
outer loop
vertex 0.153333781699207 5.6646857029613 2.50000000000017
vertex 0.15333378169923 3.33531429703863 2.5000000000001
vertex 0.602885682970041 6.74999999999995 2.5000000000001
endloop
endfacet
facet normal 5.32127166300919e-015 1.35151384930722e-015 1.0
outer loop
vertex 0.602885682970041 6.74999999999995 2.5000000000001
vertex 0.15333378169923 3.33531429703863 2.5000000000001
vertex 0.602885682970289 2.24999999999998 2.50000000000013
endloop
endfacet
facet normal 5.32127166300919e-015 1.35151384930722e-015 1.0
outer loop
vertex 0.602885682970041 6.74999999999995 2.5000000000001
vertex 0.602885682970289 2.24999999999998 2.50000000000013
vertex 1.31801948466057 7.68198051533928 2.50000000000013
endloop
endfacet
facet normal 5.32127166300919e-015 1.35151384930722e-015 1.0
outer loop
vertex 1.31801948466057 7.68198051533928 2.50000000000013
vertex 0.602885682970289 2.24999999999998 2.50000000000013
vertex 1.31801948466061 1.31801948466061 2.50000000000008
endloop
endfacet
facet normal 5.32127166300919e-015 1.35151384930722e-015 1.0
outer loop
vertex 1.31801948466057 7.68198051533928 2.50000000000013
vertex 1.31801948466061 1.31801948466061 2.50000000000008
vertex 2.24999999999985 8.39711431702987 2.50000000000003
endloop
endfacet
facet normal 5.32127166300919e-015 1.35151384930722e-015 1.0
outer loop
vertex 2.24999999999985 8.39711431702987 2.50000000000003
vertex 1.31801948466061 1.31801948466061 2.50000000000008
vertex 2.24999999999992 4.49999999999997 2.49999999999999
endloop
endfacet
facet normal 5.32127166300919e-015 1.35151384930722e-015 1.0
outer loop
vertex 2.24999999999992 4.49999999999997 2.49999999999999
vertex 1.31801948466061 1.31801948466061 2.50000000000008
vertex 2.25000000000026 0.602885682970063 2.50000000000012
endloop
endfacet
facet normal 5.32127166300919e-015 1.35151384930722e-015 1.0
outer loop
vertex 2.24999999999992 4.49999999999997 2.49999999999999
vertex 2.25000000000026 0.602885682970063 2.50000000000012
vertex 2.32666689084957 3.91765714851934 2.49999999999999
endloop
endfacet
facet normal 5.32127166300919e-015 1.35151384930722e-015 1.0
outer loop
vertex 2.32666689084957 3.91765714851934 2.49999999999999
vertex 2.25000000000026 0.602885682970063 2.50000000000012
vertex 3.33531429703868 0.153333781699207 2.50000000000009
endloop
endfacet
facet normal 5.32127166300919e-015 1.35151384930722e-015 1.0
outer loop
vertex 2.32666689084957 3.91765714851934 2.49999999999999
vertex 3.33531429703868 0.153333781699207 2.50000000000009
vertex 2.55144284148485 3.375 2.50000000000003
endloop
endfacet
facet normal 5.32127166300919e-015 1.35151384930722e-015 1.0
outer loop
vertex 2.55144284148485 3.375 2.50000000000003
vertex 3.33531429703868 0.153333781699207 2.50000000000009
vertex 2.90900974233029 2.90900974233029 2.50000000000016
endloop
endfacet
facet normal 5.32127166300919e-015 1.35151384930722e-015 1.0
outer loop
vertex 2.90900974233029 2.90900974233029 2.50000000000016
vertex 3.33531429703868 0.153333781699207 2.50000000000009
vertex 3.3000000000004 2.60899236558371 2.50000000000025
endloop
endfacet
facet normal 5.32127166300919e-015 1.35151384930722e-015 1.0
outer loop
vertex 3.3000000000004 2.60899236558371 2.50000000000025
vertex 3.33531429703868 0.153333781699207 2.50000000000009
vertex 4.1000000000004 2.60899236558371 2.50000000000028
endloop
endfacet
facet normal 5.32127166300919e-015 1.35151384930722e-015 1.0
outer loop
vertex 4.1000000000004 2.60899236558371 2.50000000000028
vertex 3.33531429703868 0.153333781699207 2.50000000000009
vertex 4.49999999999979 0.0 2.50000000000013
endloop
endfacet
facet normal 5.32127166300919e-015 1.35151384930722e-015 1.0
outer loop
vertex 4.1000000000004 2.60899236558371 2.50000000000028
vertex 4.49999999999979 0.0 2.50000000000013
vertex 5.10000000000041 2.60899236558353 2.50000000000024
endloop
endfacet
facet normal 5.32127166300919e-015 1.35151384930722e-015 1.0
outer loop
vertex 5.10000000000041 2.60899236558353 2.50000000000024
vertex 4.49999999999979 0.0 2.50000000000013
vertex 5.66468570296124 0.153333781699207 2.50000000000007
endloop
endfacet
facet normal 5.32127166300919e-015 1.35151384930722e-015 1.0
outer loop
vertex 5.10000000000041 2.60899236558353 2.50000000000024
vertex 5.66468570296124 0.153333781699207 2.50000000000007
vertex 5.70000000000041 2.60899236558353 2.50000000000026
endloop
endfacet
facet normal 5.32127166300919e-015 1.35151384930722e-015 1.0
outer loop
vertex 5.70000000000041 2.60899236558353 2.50000000000026
vertex 5.66468570296124 0.153333781699207 2.50000000000007
vertex 6.7500000000002 0.602885682970063 2.50000000000014
endloop
endfacet
facet normal 5.32127166300919e-015 1.35151384930722e-015 1.0
outer loop
vertex 5.70000000000041 2.60899236558353 2.50000000000026
vertex 6.7500000000002 0.602885682970063 2.50000000000014
vertex 6.09099025766981 2.90900974233024 2.50000000000017
endloop
endfacet
facet normal 5.32127166300919e-015 1.35151384930722e-015 1.0
outer loop
vertex 6.09099025766981 2.90900974233024 2.50000000000017
vertex 6.7500000000002 0.602885682970063 2.50000000000014
vertex 6.44855715851507 3.37500000000004 2.50000000000004
endloop
endfacet
facet normal 5.32127166300919e-015 1.35151384930722e-015 1.0
outer loop
vertex 6.44855715851507 3.37500000000004 2.50000000000004
vertex 6.7500000000002 0.602885682970063 2.50000000000014
vertex 6.67333310915055 3.91765714851927 2.50000000000004
endloop
endfacet
facet normal 5.32127166300919e-015 1.35151384930722e-015 1.0
outer loop
vertex 6.67333310915055 3.91765714851927 2.50000000000004
vertex 6.7500000000002 0.602885682970063 2.50000000000014
vertex 6.75 4.50000000000004 2.50000000000008
endloop
endfacet
facet normal 5.32127166300919e-015 1.35151384930722e-015 1.0
outer loop
vertex 2.24999999999985 8.39711431702987 2.50000000000003
vertex 2.3266668908495 5.08234285148065 2.50000000000005
vertex 3.3353142970385 8.84666621830064 2.50000000000012
endloop
endfacet
facet normal 5.32127166300919e-015 1.35151384930722e-015 1.0
outer loop
vertex 2.3266668908495 5.08234285148065 2.50000000000005
vertex 2.24999999999985 8.39711431702987 2.50000000000003
vertex 2.24999999999992 4.49999999999997 2.49999999999999
endloop
endfacet
facet normal 5.32127166300919e-015 1.35151384930722e-015 1.0
outer loop
vertex 3.3353142970385 8.84666621830064 2.50000000000012
vertex 2.3266668908495 5.08234285148065 2.50000000000005
vertex 2.55144284148498 5.62499999999996 2.50000000000012
endloop
endfacet
facet normal 5.32127166300919e-015 1.35151384930722e-015 1.0
outer loop
vertex 3.3353142970385 8.84666621830064 2.50000000000012
vertex 2.55144284148498 5.62499999999996 2.50000000000012
vertex 2.90900974233018 6.09099025766967 2.50000000000016
endloop
endfacet
facet normal 5.32127166300919e-015 1.35151384930722e-015 1.0
outer loop
vertex 3.3353142970385 8.84666621830064 2.50000000000012
vertex 2.90900974233018 6.09099025766967 2.50000000000016
vertex 3.3000000000004 6.39100763441666 2.50000000000025
endloop
endfacet
facet normal 5.32127166300919e-015 1.35151384930722e-015 1.0
outer loop
vertex 3.3353142970385 8.84666621830064 2.50000000000012
vertex 3.3000000000004 6.39100763441666 2.50000000000025
vertex 4.1000000000004 6.39100763441666 2.50000000000028
endloop
endfacet
facet normal 5.32127166300919e-015 1.35151384930722e-015 1.0
outer loop
vertex 3.3353142970385 8.84666621830064 2.50000000000012
vertex 4.1000000000004 6.39100763441666 2.50000000000028
vertex 4.49999999999983 8.99999999999985 2.50000000000012
endloop
endfacet
facet normal 5.32127166300919e-015 1.35151384930722e-015 1.0
outer loop
vertex 4.49999999999983 8.99999999999985 2.50000000000012
vertex 4.1000000000004 6.39100763441666 2.50000000000028
vertex 5.10000000000041 6.39100763441679 2.50000000000034
endloop
endfacet
facet normal 5.32127166300919e-015 1.35151384930722e-015 1.0
outer loop
vertex 4.49999999999983 8.99999999999985 2.50000000000012
vertex 5.10000000000041 6.39100763441679 2.50000000000034
vertex 5.66468570296173 8.84666621830069 2.50000000000011
endloop
endfacet
facet normal 5.32127166300919e-015 1.35151384930722e-015 1.0
outer loop
vertex 5.66468570296173 8.84666621830069 2.50000000000011
vertex 5.10000000000041 6.39100763441679 2.50000000000034
vertex 5.70000000000041 6.39100763441679 2.50000000000036
endloop
endfacet
facet normal 5.32127166300919e-015 1.35151384930722e-015 1.0
outer loop
vertex 5.66468570296173 8.84666621830069 2.50000000000011
vertex 5.70000000000041 6.39100763441679 2.50000000000036
vertex 6.74999999999989 8.39711431702983 2.50000000000009
endloop
endfacet
facet normal 5.32127166300919e-015 1.35151384930722e-015 1.0
outer loop
vertex 6.74999999999989 8.39711431702983 2.50000000000009
vertex 5.70000000000041 6.39100763441679 2.50000000000036
vertex 6.09099025766976 6.09099025766976 2.50000000000007
endloop
endfacet
facet normal 5.32127166300919e-015 1.35151384930722e-015 1.0
outer loop
vertex 6.74999999999989 8.39711431702983 2.50000000000009
vertex 6.09099025766976 6.09099025766976 2.50000000000007
vertex 6.44855715851509 5.62499999999994 2.50000000000007
endloop
endfacet
facet normal 5.32127166300919e-015 1.35151384930722e-015 1.0
outer loop
vertex 6.74999999999989 8.39711431702983 2.50000000000009
vertex 6.44855715851509 5.62499999999994 2.50000000000007
vertex 6.67333310915051 5.08234285148065 2.50000000000009
endloop
endfacet
facet normal 5.32127166300919e-015 1.35151384930722e-015 1.0
outer loop
vertex 6.74999999999989 8.39711431702983 2.50000000000009
vertex 6.67333310915051 5.08234285148065 2.50000000000009
vertex 6.75 4.50000000000004 2.50000000000008
endloop
endfacet
facet normal 5.32127166300919e-015 1.35151384930722e-015 1.0
outer loop
vertex 6.74999999999989 8.39711431702983 2.50000000000009
vertex 6.75 4.50000000000004 2.50000000000008
vertex 7.68198051533931 7.68198051533933 2.5
endloop
endfacet
facet normal 5.32127166300919e-015 1.35151384930722e-015 1.0
outer loop
vertex 7.68198051533931 7.68198051533933 2.5
vertex 6.75 4.50000000000004 2.50000000000008
vertex 6.7500000000002 0.602885682970063 2.50000000000014
endloop
endfacet
facet normal 5.32127166300919e-015 1.35151384930722e-015 1.0
outer loop
vertex 7.68198051533931 7.68198051533933 2.5
vertex 6.7500000000002 0.602885682970063 2.50000000000014
vertex 7.68198051533967 1.31801948466057 2.50000000000012
endloop
endfacet
facet normal 5.32127166300919e-015 1.35151384930722e-015 1.0
outer loop
vertex 7.68198051533931 7.68198051533933 2.5
vertex 7.68198051533967 1.31801948466057 2.50000000000012
vertex 8.39711431703006 6.74999999999995 2.50000000000012
endloop
endfacet
facet normal 5.32127166300919e-015 1.35151384930722e-015 1.0
outer loop
vertex 8.39711431703006 6.74999999999995 2.50000000000012
vertex 7.68198051533967 1.31801948466057 2.50000000000012
vertex 8.39711431702999 2.25000000000008 2.50000000000001
endloop
endfacet
facet normal 5.32127166300919e-015 1.35151384930722e-015 1.0
outer loop
vertex 8.39711431703006 6.74999999999995 2.50000000000012
vertex 8.39711431702999 2.25000000000008 2.50000000000001
vertex 8.84666621830078 3.33531429703877 2.5000000000001
endloop
endfacet
facet normal 5.32127166300919e-015 1.35151384930722e-015 1.0
outer loop
vertex 8.39711431703006 6.74999999999995 2.50000000000012
vertex 8.84666621830078 3.33531429703877 2.5000000000001
vertex 8.84666621830082 5.66468570296133 2.50000000000007
endloop
endfacet
facet normal 5.32127166300919e-015 1.35151384930722e-015 1.0
outer loop
vertex 8.84666621830082 5.66468570296133 2.50000000000007
vertex 8.84666621830078 3.33531429703877 2.5000000000001
vertex 9.00000000000001 4.50000000000001 2.50000000000006
endloop
endfacet
facet normal 0.793353340291251 -0.6087614290087 2.91418918252675e-015
outer loop
vertex 6.44855715851507 3.37500000000004 2.50000000000004
vertex 6.09099025766975 2.90900974233027 15.5000000000001
vertex 6.09099025766981 2.90900974233024 2.50000000000017
endloop
endfacet
facet normal 0.793353340291251 -0.6087614290087 2.91418918252675e-015
outer loop
vertex 6.09099025766975 2.90900974233027 15.5000000000001
vertex 6.44855715851507 3.37500000000004 2.50000000000004
vertex 6.44855715851501 3.375 15.4999999999999
endloop
endfacet
facet normal -0.382683432365108 -0.923879532511279 4.82289550621204e-015
outer loop
vertex 3.33531429703868 0.153333781699207 2.50000000000009
vertex 2.24999999999998 0.602885682970086 8.74189609589848e-014
vertex 3.33531429703886 0.153333781699207 4.79394302033143e-014
endloop
endfacet
facet normal -0.382683432365108 -0.923879532511279 4.82289550621204e-015
outer loop
vertex 2.24999999999998 0.602885682970086 8.74189609589848e-014
vertex 3.33531429703868 0.153333781699207 2.50000000000009
vertex 2.25000000000026 0.602885682970063 2.50000000000012
endloop
endfacet
facet normal 0.923879532511234 0.382683432365217 -5.33666718073322e-015
outer loop
vertex 6.44855715851509 5.62499999999994 2.50000000000007
vertex 6.67333310915066 5.08234285148065 15.5
vertex 6.67333310915051 5.08234285148065 2.50000000000009
endloop
endfacet
facet normal 0.923879532511234 0.382683432365217 -5.33666718073322e-015
outer loop
vertex 6.67333310915066 5.08234285148065 15.5
vertex 6.44855715851509 5.62499999999994 2.50000000000007
vertex 6.44855715851506 5.62500000000003 15.5
endloop
endfacet
facet normal 0.991444861373816 0.130526192220011 3.49056396818896e-014
outer loop
vertex 8.84666621830096 5.6646857029613 9.58788604066285e-014
vertex 9.00000000000001 4.50000000000001 2.50000000000006
vertex 9.00000000000005 4.49999999999999 9.02389274415327e-014
endloop
endfacet
facet normal 0.991444861373816 0.130526192220011 3.49056396818896e-014
outer loop
vertex 9.00000000000001 4.50000000000001 2.50000000000006
vertex 8.84666621830096 5.6646857029613 9.58788604066285e-014
vertex 8.84666621830082 5.66468570296133 2.50000000000007
endloop
endfacet
facet normal -0.923879532511253 -0.382683432365171 4.15364678795458e-014
outer loop
vertex 0.15333378169923 3.33531429703863 2.5000000000001
vertex 0.602885682970041 2.25000000000003 1.57918123022682e-013
vertex 0.602885682970289 2.24999999999998 2.50000000000013
endloop
endfacet
facet normal -0.923879532511253 -0.382683432365171 4.15364678795458e-014
outer loop
vertex 0.602885682970041 2.25000000000003 1.57918123022682e-013
vertex 0.15333378169923 3.33531429703863 2.5000000000001
vertex 0.15333378169923 3.33531429703866 1.04338759854272e-013
endloop
endfacet
facet normal -0.608761429008672 -0.793353340291273 5.39778684395195e-014
outer loop
vertex 2.24999999999998 0.602885682970086 8.74189609589848e-014
vertex 1.31801948466061 1.31801948466061 2.50000000000008
vertex 1.31801948466045 1.31801948466057 7.89590615113411e-014
endloop
endfacet
facet normal -0.608761429008672 -0.793353340291273 5.39778684395195e-014
outer loop
vertex 1.31801948466061 1.31801948466061 2.50000000000008
vertex 2.24999999999998 0.602885682970086 8.74189609589848e-014
vertex 2.25000000000026 0.602885682970063 2.50000000000012
endloop
endfacet
facet normal 0.923879532511314 -0.382683432365025 7.63373372626042e-014
outer loop
vertex 8.84666621830091 3.33531429703868 1.18438592267012e-013
vertex 8.39711431702999 2.25000000000008 2.50000000000001
vertex 8.39711431703019 2.24999999999998 7.33191285462453e-014
endloop
endfacet
facet normal 0.923879532511314 -0.382683432365025 7.63373372626042e-014
outer loop
vertex 8.39711431702999 2.25000000000008 2.50000000000001
vertex 8.84666621830091 3.33531429703868 1.18438592267012e-013
vertex 8.84666621830078 3.33531429703877 2.5000000000001
endloop
endfacet
facet normal -0.793353340291164 0.608761429008813 1.64892097562211e-015
outer loop
vertex 2.55144284148495 5.62500000000005 15.5000000000002
vertex 2.90900974233018 6.09099025766967 2.50000000000016
vertex 2.55144284148498 5.62499999999996 2.50000000000012
endloop
endfacet
facet normal -0.793353340291164 0.608761429008813 1.64892097562211e-015
outer loop
vertex 2.90900974233018 6.09099025766967 2.50000000000016
vertex 2.55144284148495 5.62500000000005 15.5000000000002
vertex 2.90900974233037 6.09099025766972 15.5000000000001
endloop
endfacet
facet normal -0.923879532511335 0.382683432364974 5.88703366481515e-015
outer loop
vertex 2.55144284148495 5.62500000000005 15.5000000000002
vertex 2.3266668908495 5.08234285148065 2.50000000000005
vertex 2.32666689084973 5.08234285148065 15.5000000000002
endloop
endfacet
facet normal -0.923879532511335 0.382683432364974 5.88703366481515e-015
outer loop
vertex 2.3266668908495 5.08234285148065 2.50000000000005
vertex 2.55144284148495 5.62500000000005 15.5000000000002
vertex 2.55144284148498 5.62499999999996 2.50000000000012
endloop
endfacet
facet normal -0.60876142900865 0.793353340291289 -4.11355844670599e-015
outer loop
vertex 2.90900974233037 6.09099025766972 15.5000000000001
vertex 3.3000000000004 6.39100763441666 2.50000000000025
vertex 2.90900974233018 6.09099025766967 2.50000000000016
endloop
endfacet
facet normal -0.60876142900865 0.793353340291289 -4.11355844670599e-015
outer loop
vertex 3.3000000000004 6.39100763441666 2.50000000000025
vertex 2.90900974233037 6.09099025766972 15.5000000000001
vertex 3.29999999999992 6.39100763441652 15.5000000000001
endloop
endfacet
facet normal 0.608761429008791 -0.793353340291181 8.9709328847273e-015
outer loop
vertex 6.09099025766975 2.90900974233027 15.5000000000001
vertex 5.70000000000041 2.60899236558353 2.50000000000026
vertex 6.09099025766981 2.90900974233024 2.50000000000017
endloop
endfacet
facet normal 0.608761429008791 -0.793353340291181 8.9709328847273e-015
outer loop
vertex 5.70000000000041 2.60899236558353 2.50000000000026
vertex 6.09099025766975 2.90900974233027 15.5000000000001
vertex 5.69999999999993 2.60899236558339 15.5000000000001
endloop
endfacet
facet normal -1.116950873646e-013 -3.85323143767323e-015 -1.0
outer loop
vertex 6.86915675883749 6.39100763441663 15.5
vertex 6.09099025766984 6.09099025766972 15.5
vertex 5.69999999999993 6.39100763441666 15.5000000000002
endloop
endfacet
facet normal -1.116950873646e-013 -3.85323143767323e-015 -1.0
outer loop
vertex 6.09099025766984 6.09099025766972 15.5
vertex 6.86915675883749 6.39100763441663 15.5
vertex 6.44855715851506 5.62500000000003 15.5
endloop
endfacet
facet normal -1.116950873646e-013 -3.85323143767323e-015 -1.0
outer loop
vertex 6.44855715851506 5.62500000000003 15.5
vertex 6.86915675883749 6.39100763441663 15.5
vertex 6.67333310915066 5.08234285148065 15.5
endloop
endfacet
facet normal -1.116950873646e-013 -3.85323143767323e-015 -1.0
outer loop
vertex 6.67333310915066 5.08234285148065 15.5
vertex 6.86915675883749 6.39100763441663 15.5
vertex 6.75000000000044 4.49999999999997 15.5000000000001
endloop
endfacet
facet normal -1.116950873646e-013 -3.85323143767323e-015 -1.0
outer loop
vertex 6.75000000000044 4.49999999999997 15.5000000000001
vertex 6.86915675883749 6.39100763441663 15.5
vertex 6.86915675883741 2.60899236558337 15.5
endloop
endfacet
facet normal -1.116950873646e-013 -3.85323143767323e-015 -1.0
outer loop
vertex 6.09099025766975 2.90900974233027 15.5000000000001
vertex 6.86915675883741 2.60899236558337 15.5
vertex 5.69999999999993 2.60899236558339 15.5000000000001
endloop
endfacet
facet normal -1.116950873646e-013 -3.85323143767323e-015 -1.0
outer loop
vertex 6.86915675883741 2.60899236558337 15.5
vertex 6.09099025766975 2.90900974233027 15.5000000000001
vertex 6.44855715851501 3.375 15.4999999999999
endloop
endfacet
facet normal -1.116950873646e-013 -3.85323143767323e-015 -1.0
outer loop
vertex 6.86915675883741 2.60899236558337 15.5
vertex 6.44855715851501 3.375 15.4999999999999
vertex 6.67333310915052 3.91765714851931 15.4999999999999
endloop
endfacet
facet normal -1.116950873646e-013 -3.85323143767323e-015 -1.0
outer loop
vertex 6.86915675883741 2.60899236558337 15.5
vertex 6.67333310915052 3.91765714851931 15.4999999999999
vertex 6.75000000000044 4.49999999999997 15.5000000000001
endloop
endfacet
facet normal 0.608761429009014 0.79335334029101 1.475012101721e-014
outer loop
vertex 5.70000000000041 6.39100763441679 2.50000000000036
vertex 6.09099025766984 6.09099025766972 15.5
vertex 6.09099025766976 6.09099025766976 2.50000000000007
endloop
endfacet
facet normal 0.608761429009014 0.79335334029101 1.475012101721e-014
outer loop
vertex 6.09099025766984 6.09099025766972 15.5
vertex 5.70000000000041 6.39100763441679 2.50000000000036
vertex 5.69999999999993 6.39100763441666 15.5000000000002
endloop
endfacet
facet normal -0.608761429008384 -0.793353340291493 -1.384524344702e-014
outer loop
vertex 3.3000000000004 2.60899236558371 2.50000000000025
vertex 2.9090097423303 2.90900974233033 15.5000000000002
vertex 2.90900974233029 2.90900974233029 2.50000000000016
endloop
endfacet
facet normal -0.608761429008384 -0.793353340291493 -1.384524344702e-014
outer loop
vertex 2.9090097423303 2.90900974233033 15.5000000000002
vertex 3.3000000000004 2.60899236558371 2.50000000000025
vertex 3.29999999999992 2.60899236558357 15.5000000000001
endloop
endfacet
facet normal -0.945957982131793 2.19253837623535e-014 0.32428921665875
outer loop
vertex 2.22213705196315 2.60899236558362 16.1919978546126
vertex 2.16492100440208 6.39100763441686 16.0250975257822
vertex 2.164921004402 2.60899236558357 16.0250975257822
endloop
endfacet
facet normal -0.945957982131793 2.19253837623535e-014 0.32428921665875
outer loop
vertex 2.16492100440208 6.39100763441686 16.0250975257822
vertex 2.22213705196315 2.60899236558362 16.1919978546126
vertex 2.22213705196322 6.39100763441686 16.1919978546126
endloop
endfacet
facet normal -1.97088843540811e-014 -1.0 6.1716795533984e-015
outer loop
vertex 3.29999999999992 2.60899236558357 15.5000000000001
vertex 2.1188690606886 2.60899236558357 15.6760284490195
vertex 2.13084324116245 2.60899236558353 15.5
endloop
endfacet
facet normal -1.97088843540811e-014 -1.0 6.1716795533984e-015
outer loop
vertex 2.1188690606886 2.60899236558357 15.6760284490195
vertex 3.29999999999992 2.60899236558357 15.5000000000001
vertex 4.09999999999991 2.60899236558357 15.5000000000001
endloop
endfacet
facet normal -1.97088843540811e-014 -1.0 6.1716795533984e-015
outer loop
vertex 2.1188690606886 2.60899236558357 15.6760284490195
vertex 4.09999999999991 2.60899236558357 15.5000000000001
vertex 4.09999999999996 2.60899236558353 17.0000000000001
endloop
endfacet
facet normal -1.97088843540811e-014 -1.0 6.1716795533984e-015
outer loop
vertex 2.1188690606886 2.60899236558357 15.6760284490195
vertex 4.09999999999996 2.60899236558353 17.0000000000001
vertex 2.13084324116243 2.60899236558353 15.8548309889236
endloop
endfacet
facet normal -1.97088843540811e-014 -1.0 6.1716795533984e-015
outer loop
vertex 2.13084324116243 2.60899236558353 15.8548309889236
vertex 4.09999999999996 2.60899236558353 17.0000000000001
vertex 2.164921004402 2.60899236558357 16.0250975257822
endloop
endfacet
facet normal -1.97088843540811e-014 -1.0 6.1716795533984e-015
outer loop
vertex 2.164921004402 2.60899236558357 16.0250975257822
vertex 4.09999999999996 2.60899236558353 17.0000000000001
vertex 2.22213705196315 2.60899236558362 16.1919978546126
endloop
endfacet
facet normal -1.97088843540811e-014 -1.0 6.1716795533984e-015
outer loop
vertex 2.22213705196315 2.60899236558362 16.1919978546126
vertex 4.09999999999996 2.60899236558353 17.0000000000001
vertex 2.30093699683498 2.60899236558362 16.3498584404167
endloop
endfacet
facet normal -1.97088843540811e-014 -1.0 6.1716795533984e-015
outer loop
vertex 2.30093699683498 2.60899236558362 16.3498584404167
vertex 4.09999999999996 2.60899236558353 17.0000000000001
vertex 2.39993470874119 2.60899236558362 16.4959024368683
endloop
endfacet
facet normal -1.97088843540811e-014 -1.0 6.1716795533984e-015
outer loop
vertex 2.39993470874119 2.60899236558362 16.4959024368683
vertex 4.09999999999996 2.60899236558353 17.0000000000001
vertex 2.51738876862387 2.60899236558362 16.6275608573331
endloop
endfacet
facet normal -1.97088843540811e-014 -1.0 6.1716795533984e-015
outer loop
vertex 2.51738876862387 2.60899236558362 16.6275608573331
vertex 4.09999999999996 2.60899236558353 17.0000000000001
vertex 2.65123310107212 2.60899236558362 16.7425177646232
endloop
endfacet
facet normal -1.97088843540811e-014 -1.0 6.1716795533984e-015
outer loop
vertex 2.65123310107212 2.60899236558362 16.7425177646232
vertex 4.09999999999996 2.60899236558353 17.0000000000001
vertex 2.79911331761749 2.60899236558357 16.8387510094854
endloop
endfacet
facet normal -1.97088843540811e-014 -1.0 6.1716795533984e-015
outer loop
vertex 2.79911331761749 2.60899236558357 16.8387510094854
vertex 4.09999999999996 2.60899236558353 17.0000000000001
vertex 2.95842813159973 2.60899236558357 16.914567801214
endloop
endfacet
facet normal -1.97088843540811e-014 -1.0 6.1716795533984e-015
outer loop
vertex 2.95842813159973 2.60899236558357 16.914567801214
vertex 4.09999999999996 2.60899236558353 17.0000000000001
vertex 3.1263751160948 2.60899236558353 16.9686344846823
endloop
endfacet
facet normal -1.97088843540811e-014 -1.0 6.1716795533984e-015
outer loop
vertex 3.1263751160948 2.60899236558353 16.9686344846823
vertex 4.09999999999996 2.60899236558353 17.0000000000001
vertex 3.29999999999996 2.60899236558353 17.0000000000001
endloop
endfacet
facet normal -0.997694358058737 -9.61469957712628e-016 -0.0678672814967947
outer loop
vertex 2.1188690606886 2.60899236558357 15.6760284490195
vertex 2.13084324116236 6.39100763441681 15.4999999999999
vertex 2.13084324116245 2.60899236558353 15.5
endloop
endfacet
facet normal -0.997694358058737 -9.61469957712628e-016 -0.0678672814967947
outer loop
vertex 2.13084324116236 6.39100763441681 15.4999999999999
vertex 2.1188690606886 2.60899236558357 15.6760284490195
vertex 2.11886906068869 6.39100763441686 15.6760284490194
endloop
endfacet
facet normal 1.2860253027556e-014 -1.10508212540781e-014 -1.0
outer loop
vertex 2.13084324116236 6.39100763441681 15.4999999999999
vertex 2.2500000000002 4.50000000000001 15.5000000000001
vertex 2.13084324116245 2.60899236558353 15.5
endloop
endfacet
facet normal 1.2860253027556e-014 -1.10508212540781e-014 -1.0
outer loop
vertex 2.2500000000002 4.50000000000001 15.5000000000001
vertex 2.13084324116236 6.39100763441681 15.4999999999999
vertex 2.32666689084973 5.08234285148065 15.5000000000002
endloop
endfacet
facet normal 1.2860253027556e-014 -1.10508212540781e-014 -1.0
outer loop
vertex 2.32666689084973 5.08234285148065 15.5000000000002
vertex 2.13084324116236 6.39100763441681 15.4999999999999
vertex 2.55144284148495 5.62500000000005 15.5000000000002
endloop
endfacet
facet normal 1.2860253027556e-014 -1.10508212540781e-014 -1.0
outer loop
vertex 2.55144284148495 5.62500000000005 15.5000000000002
vertex 2.13084324116236 6.39100763441681 15.4999999999999
vertex 2.90900974233037 6.09099025766972 15.5000000000001
endloop
endfacet
facet normal 1.2860253027556e-014 -1.10508212540781e-014 -1.0
outer loop
vertex 2.90900974233037 6.09099025766972 15.5000000000001
vertex 2.13084324116236 6.39100763441681 15.4999999999999
vertex 3.29999999999992 6.39100763441652 15.5000000000001
endloop
endfacet
facet normal 1.2860253027556e-014 -1.10508212540781e-014 -1.0
outer loop
vertex 2.13084324116245 2.60899236558353 15.5
vertex 2.9090097423303 2.90900974233033 15.5000000000002
vertex 3.29999999999992 2.60899236558357 15.5000000000001
endloop
endfacet
facet normal 1.2860253027556e-014 -1.10508212540781e-014 -1.0
outer loop
vertex 2.9090097423303 2.90900974233033 15.5000000000002
vertex 2.13084324116245 2.60899236558353 15.5
vertex 2.55144284148515 3.37500000000009 15.5000000000001
endloop
endfacet
facet normal 1.2860253027556e-014 -1.10508212540781e-014 -1.0
outer loop
vertex 2.55144284148515 3.37500000000009 15.5000000000001
vertex 2.13084324116245 2.60899236558353 15.5
vertex 2.32666689084978 3.91765714851938 15.5000000000002
endloop
endfacet
facet normal 1.2860253027556e-014 -1.10508212540781e-014 -1.0
outer loop
vertex 2.32666689084978 3.91765714851938 15.5000000000002
vertex 2.13084324116245 2.60899236558353 15.5
vertex 2.2500000000002 4.50000000000001 15.5000000000001
endloop
endfacet
facet normal -0.306439245222325 1.14150649804111e-014 0.951890218978834
outer loop
vertex 3.1263751160948 2.60899236558353 16.9686344846823
vertex 2.95842813159982 6.39100763441686 16.914567801214
vertex 2.95842813159973 2.60899236558357 16.914567801214
endloop
endfacet
facet normal -0.306439245222325 1.14150649804111e-014 0.951890218978834
outer loop
vertex 2.95842813159982 6.39100763441686 16.914567801214
vertex 3.1263751160948 2.60899236558353 16.9686344846823
vertex 3.12637511609484 6.39100763441681 16.9686344846822
endloop
endfacet
facet normal -0.827748424187912 2.10451287334046e-014 0.561099408531527
outer loop
vertex 2.39993470874127 6.39100763441686 16.4959024368683
vertex 2.30093699683498 2.60899236558362 16.3498584404167
vertex 2.39993470874119 2.60899236558362 16.4959024368683
endloop
endfacet
facet normal -0.827748424187912 2.10451287334046e-014 0.561099408531527
outer loop
vertex 2.30093699683498 2.60899236558362 16.3498584404167
vertex 2.39993470874127 6.39100763441686 16.4959024368683
vertex 2.30093699683506 6.39100763441686 16.3498584404167
endloop
endfacet
facet normal -0.997832409973536 -4.84641188480849e-005 0.0658063770286313
outer loop
vertex 2.13029531292446 6.39100763441686 15.8520933138337
vertex 2.1188690606886 2.60899236558357 15.6760284490195
vertex 2.13084324116243 2.60899236558353 15.8548309889236
endloop
endfacet
facet normal -0.997832409973536 -4.84641188480849e-005 0.0658063770286313
outer loop
vertex 2.1188690606886 2.60899236558357 15.6760284490195
vertex 2.13029531292446 6.39100763441686 15.8520933138337
vertex 2.11886906068869 6.39100763441686 15.6760284490194
endloop
endfacet
facet normal 1.24030237188109e-013 1.0 -1.46639212444272e-013
outer loop
vertex 2.11886906068869 6.39100763441686 15.6760284490194
vertex 3.29999999999992 6.39100763441652 15.5000000000001
vertex 2.13084324116236 6.39100763441681 15.4999999999999
endloop
endfacet
facet normal 1.24030237188109e-013 1.0 -1.46639212444272e-013
outer loop
vertex 3.29999999999992 6.39100763441652 15.5000000000001
vertex 2.11886906068869 6.39100763441686 15.6760284490194
vertex 4.09999999999991 6.39100763441652 15.5000000000001
endloop
endfacet
facet normal 1.24030237188109e-013 1.0 -1.46639212444272e-013
outer loop
vertex 4.09999999999991 6.39100763441652 15.5000000000001
vertex 2.11886906068869 6.39100763441686 15.6760284490194
vertex 4.09999999999994 6.39100763441686 17.0000000000002
endloop
endfacet
facet normal 1.24030237188109e-013 1.0 -1.46639212444272e-013
outer loop
vertex 4.09999999999994 6.39100763441686 17.0000000000002
vertex 2.11886906068869 6.39100763441686 15.6760284490194
vertex 2.13029531292446 6.39100763441686 15.8520933138337
endloop
endfacet
facet normal 1.24030237188109e-013 1.0 -1.46639212444272e-013
outer loop
vertex 4.09999999999994 6.39100763441686 17.0000000000002
vertex 2.13029531292446 6.39100763441686 15.8520933138337
vertex 2.16492100440208 6.39100763441686 16.0250975257822
endloop
endfacet
facet normal 1.24030237188109e-013 1.0 -1.46639212444272e-013
outer loop
vertex 4.09999999999994 6.39100763441686 17.0000000000002
vertex 2.16492100440208 6.39100763441686 16.0250975257822
vertex 2.22213705196322 6.39100763441686 16.1919978546126
endloop
endfacet
facet normal 1.24030237188109e-013 1.0 -1.46639212444272e-013
outer loop
vertex 4.09999999999994 6.39100763441686 17.0000000000002
vertex 2.22213705196322 6.39100763441686 16.1919978546126
vertex 2.30093699683506 6.39100763441686 16.3498584404167
endloop
endfacet
facet normal 1.24030237188109e-013 1.0 -1.46639212444272e-013
outer loop
vertex 4.09999999999994 6.39100763441686 17.0000000000002
vertex 2.30093699683506 6.39100763441686 16.3498584404167
vertex 2.39993470874127 6.39100763441686 16.4959024368683
endloop
endfacet
facet normal 1.24030237188109e-013 1.0 -1.46639212444272e-013
outer loop
vertex 4.09999999999994 6.39100763441686 17.0000000000002
vertex 2.39993470874127 6.39100763441686 16.4959024368683
vertex 2.51738876862396 6.39100763441686 16.6275608573331
endloop
endfacet
facet normal 1.24030237188109e-013 1.0 -1.46639212444272e-013
outer loop
vertex 4.09999999999994 6.39100763441686 17.0000000000002
vertex 2.51738876862396 6.39100763441686 16.6275608573331
vertex 2.65123310107222 6.39100763441686 16.7425177646232
endloop
endfacet
facet normal 1.24030237188109e-013 1.0 -1.46639212444272e-013
outer loop
vertex 4.09999999999994 6.39100763441686 17.0000000000002
vertex 2.65123310107222 6.39100763441686 16.7425177646232
vertex 2.79911331761758 6.39100763441686 16.8387510094854
endloop
endfacet
facet normal 1.24030237188109e-013 1.0 -1.46639212444272e-013
outer loop
vertex 4.09999999999994 6.39100763441686 17.0000000000002
vertex 2.79911331761758 6.39100763441686 16.8387510094854
vertex 2.95842813159982 6.39100763441686 16.914567801214
endloop
endfacet
facet normal 1.24030237188109e-013 1.0 -1.46639212444272e-013
outer loop
vertex 4.09999999999994 6.39100763441686 17.0000000000002
vertex 2.95842813159982 6.39100763441686 16.914567801214
vertex 3.12637511609484 6.39100763441681 16.9686344846822
endloop
endfacet
facet normal 1.24030237188109e-013 1.0 -1.46639212444272e-013
outer loop
vertex 4.09999999999994 6.39100763441686 17.0000000000002
vertex 3.12637511609484 6.39100763441681 16.9686344846822
vertex 3.29999999999994 6.39100763441686 17.0000000000002
endloop
endfacet
facet normal -0.746213830891365 2.11586371479045e-014 0.665706330589122
outer loop
vertex 2.51738876862396 6.39100763441686 16.6275608573331
vertex 2.39993470874119 2.60899236558362 16.4959024368683
vertex 2.51738876862387 2.60899236558362 16.6275608573331
endloop
endfacet
facet normal -0.746213830891365 2.11586371479045e-014 0.665706330589122
outer loop
vertex 2.39993470874119 2.60899236558362 16.4959024368683
vertex 2.51738876862396 6.39100763441686 16.6275608573331
vertex 2.39993470874127 6.39100763441686 16.4959024368683
endloop
endfacet
facet normal 0.8947225104459 2.23435826821059e-014 0.446622468424269
outer loop
vertex 6.77786294803662 6.39100763441668 16.1919978546126
vertex 6.69906300316487 2.60899236558342 16.3498584404167
vertex 6.7778629480367 2.60899236558342 16.1919978546126
endloop
endfacet
facet normal 0.8947225104459 2.23435826821059e-014 0.446622468424269
outer loop
vertex 6.69906300316487 2.60899236558342 16.3498584404167
vertex 6.77786294803662 6.39100763441668 16.1919978546126
vertex 6.69906300316479 6.39100763441668 16.3498584404167
endloop
endfacet
facet normal 0.651552964660309 1.96637324218721e-014 0.758603146739033
outer loop
vertex 6.34876689892772 2.60899236558342 16.7425177646232
vertex 6.48261123137589 6.39100763441668 16.6275608573331
vertex 6.34876689892764 6.39100763441668 16.7425177646232
endloop
endfacet
facet normal 0.651552964660309 1.96637324218721e-014 0.758603146739033
outer loop
vertex 6.48261123137589 6.39100763441668 16.6275608573331
vertex 6.34876689892772 2.60899236558342 16.7425177646232
vertex 6.48261123137598 2.60899236558342 16.6275608573331
endloop
endfacet
facet normal 0.746213830891365 2.11586371479043e-014 0.665706330589122
outer loop
vertex 6.60006529125858 6.39100763441668 16.4959024368683
vertex 6.48261123137598 2.60899236558342 16.6275608573331
vertex 6.60006529125866 2.60899236558342 16.4959024368683
endloop
endfacet
facet normal 0.746213830891365 2.11586371479043e-014 0.665706330589122
outer loop
vertex 6.48261123137598 2.60899236558342 16.6275608573331
vertex 6.60006529125858 6.39100763441668 16.4959024368683
vertex 6.48261123137589 6.39100763441668 16.6275608573331
endloop
endfacet
facet normal -0.651552964660309 2.06355409709637e-014 0.758603146739033
outer loop
vertex 2.65123310107212 2.60899236558362 16.7425177646232
vertex 2.51738876862396 6.39100763441686 16.6275608573331
vertex 2.51738876862387 2.60899236558362 16.6275608573331
endloop
endfacet
facet normal -0.651552964660309 2.06355409709637e-014 0.758603146739033
outer loop
vertex 2.51738876862396 6.39100763441686 16.6275608573331
vertex 2.65123310107212 2.60899236558362 16.7425177646232
vertex 2.65123310107222 6.39100763441686 16.7425177646232
endloop
endfacet
facet normal -0.545430957277279 1.8638304371578e-014 0.838155755718227
outer loop
vertex 2.79911331761749 2.60899236558357 16.8387510094854
vertex 2.65123310107222 6.39100763441686 16.7425177646232
vertex 2.65123310107212 2.60899236558362 16.7425177646232
endloop
endfacet
facet normal -0.545430957277279 1.8638304371578e-014 0.838155755718227
outer loop
vertex 2.65123310107222 6.39100763441686 16.7425177646232
vertex 2.79911331761749 2.60899236558357 16.8387510094854
vertex 2.79911331761758 6.39100763441686 16.8387510094854
endloop
endfacet
facet normal -0.177773523794269 -5.97170091861552e-015 0.98407142740645
outer loop
vertex 3.29999999999996 2.60899236558353 17.0000000000001
vertex 3.12637511609484 6.39100763441681 16.9686344846822
vertex 3.1263751160948 2.60899236558353 16.9686344846823
endloop
endfacet
facet normal -0.177773523794269 -5.97170091861552e-015 0.98407142740645
outer loop
vertex 3.12637511609484 6.39100763441681 16.9686344846822
vertex 3.29999999999996 2.60899236558353 17.0000000000001
vertex 3.29999999999994 6.39100763441686 17.0000000000002
endloop
endfacet
facet normal 0.997694358058737 -9.61315600691044e-016 -0.0678672814967947
outer loop
vertex 6.86915675883749 6.39100763441663 15.5
vertex 6.88113093931125 2.60899236558339 15.6760284490195
vertex 6.86915675883741 2.60899236558337 15.5
endloop
endfacet
facet normal 0.997694358058737 -9.61315600691044e-016 -0.0678672814967947
outer loop
vertex 6.88113093931125 2.60899236558339 15.6760284490195
vertex 6.86915675883749 6.39100763441663 15.5
vertex 6.88113093931117 6.39100763441666 15.6760284490194
endloop
endfacet
facet normal -0.429714547705799 1.63122670203189e-014 0.902964787513888
outer loop
vertex 2.95842813159973 2.60899236558357 16.914567801214
vertex 2.79911331761758 6.39100763441686 16.8387510094854
vertex 2.79911331761749 2.60899236558357 16.8387510094854
endloop
endfacet
facet normal -0.429714547705799 1.63122670203189e-014 0.902964787513888
outer loop
vertex 2.79911331761758 6.39100763441686 16.8387510094854
vertex 2.95842813159973 2.60899236558357 16.914567801214
vertex 2.95842813159982 6.39100763441686 16.914567801214
endloop
endfacet
facet normal -0.8947225104459 2.1676331490049e-014 0.446622468424269
outer loop
vertex 2.30093699683506 6.39100763441686 16.3498584404167
vertex 2.22213705196315 2.60899236558362 16.1919978546126
vertex 2.30093699683498 2.60899236558362 16.3498584404167
endloop
endfacet
facet normal -0.8947225104459 2.1676331490049e-014 0.446622468424269
outer loop
vertex 2.22213705196315 2.60899236558362 16.1919978546126
vertex 2.30093699683506 6.39100763441686 16.3498584404167
vertex 2.22213705196322 6.39100763441686 16.1919978546126
endloop
endfacet
facet normal 0.306439245222344 1.16430564302603e-014 0.951890218978828
outer loop
vertex 5.87362488390505 2.60899236558337 16.9686344846823
vertex 6.04157186840001 6.39100763441666 16.914567801214
vertex 5.87362488390501 6.39100763441663 16.9686344846823
endloop
endfacet
facet normal 0.306439245222344 1.16430564302603e-014 0.951890218978828
outer loop
vertex 6.04157186840001 6.39100763441666 16.914567801214
vertex 5.87362488390505 2.60899236558337 16.9686344846823
vertex 6.0415718684001 2.60899236558339 16.9145678012141
endloop
endfacet
facet normal 0.945957982131786 2.29835748503906e-014 0.324289216658772
outer loop
vertex 6.83507899559777 6.39100763441666 16.0250975257822
vertex 6.7778629480367 2.60899236558342 16.1919978546126
vertex 6.83507899559786 2.60899236558339 16.0250975257822
endloop
endfacet
facet normal 0.945957982131786 2.29835748503906e-014 0.324289216658772
outer loop
vertex 6.7778629480367 2.60899236558342 16.1919978546126
vertex 6.83507899559777 6.39100763441666 16.0250975257822
vertex 6.77786294803662 6.39100763441668 16.1919978546126
endloop
endfacet
facet normal -0.980553581781023 2.15794828544323e-014 0.196251556061111
outer loop
vertex 2.164921004402 2.60899236558357 16.0250975257822
vertex 2.13029531292446 6.39100763441686 15.8520933138337
vertex 2.13084324116243 2.60899236558353 15.8548309889236
endloop
endfacet
facet normal -0.980553581781023 2.15794828544323e-014 0.196251556061111
outer loop
vertex 2.13029531292446 6.39100763441686 15.8520933138337
vertex 2.164921004402 2.60899236558357 16.0250975257822
vertex 2.16492100440208 6.39100763441686 16.0250975257822
endloop
endfacet
facet normal 0.429714547705792 1.56713363611405e-014 0.902964787513891
outer loop
vertex 6.0415718684001 2.60899236558339 16.9145678012141
vertex 6.20088668238227 6.39100763441666 16.8387510094854
vertex 6.04157186840001 6.39100763441666 16.914567801214
endloop
endfacet
facet normal 0.429714547705792 1.56713363611405e-014 0.902964787513891
outer loop
vertex 6.20088668238227 6.39100763441666 16.8387510094854
vertex 6.0415718684001 2.60899236558339 16.9145678012141
vertex 6.20088668238235 2.60899236558339 16.8387510094854
endloop
endfacet
facet normal 0.545430957277253 1.76200647782363e-014 0.838155755718243
outer loop
vertex 6.20088668238235 2.60899236558339 16.8387510094854
vertex 6.34876689892764 6.39100763441668 16.7425177646232
vertex 6.20088668238227 6.39100763441666 16.8387510094854
endloop
endfacet
facet normal 0.545430957277253 1.76200647782363e-014 0.838155755718243
outer loop
vertex 6.34876689892764 6.39100763441668 16.7425177646232
vertex 6.20088668238235 2.60899236558339 16.8387510094854
vertex 6.34876689892772 2.60899236558342 16.7425177646232
endloop
endfacet
facet normal -3.75995531006387e-014 -1.938625926512e-014 1.0
outer loop
vertex 5.69999999999989 2.60899236558337 17.0000000000001
vertex 5.09999999999991 6.39100763441666 17.0000000000001
vertex 5.09999999999989 2.60899236558337 17.0000000000001
endloop
endfacet
facet normal -3.75995531006387e-014 -1.938625926512e-014 1.0
outer loop
vertex 5.09999999999991 6.39100763441666 17.0000000000001
vertex 5.69999999999989 2.60899236558337 17.0000000000001
vertex 5.69999999999991 6.39100763441666 17.0000000000002
endloop
endfacet
facet normal 1.0 5.96500285080696e-015 -4.22994972382168e-014
outer loop
vertex 4.09999999999969 6.391007634417 11.0000000000002
vertex 4.09999999999991 6.39100763441652 15.5000000000001
vertex 4.09999999999971 2.60899236558367 11.0000000000001
endloop
endfacet
facet normal 1.0 5.96500285080696e-015 -4.22994972382168e-014
outer loop
vertex 4.09999999999991 2.60899236558357 15.5000000000001
vertex 4.09999999999994 6.39100763441686 17.0000000000002
vertex 4.09999999999996 2.60899236558353 17.0000000000001
endloop
endfacet
facet normal 1.0 5.96500285080696e-015 -4.22994972382168e-014
outer loop
vertex 4.09999999999994 6.39100763441686 17.0000000000002
vertex 4.09999999999991 2.60899236558357 15.5000000000001
vertex 4.09999999999971 2.60899236558367 11.0000000000001
endloop
endfacet
facet normal 1.0 5.96500285080696e-015 -4.22994972382168e-014
outer loop
vertex 4.09999999999994 6.39100763441686 17.0000000000002
vertex 4.09999999999971 2.60899236558367 11.0000000000001
vertex 4.09999999999991 6.39100763441652 15.5000000000001
endloop
endfacet
facet normal 0.827748424187923 2.19717712795892e-014 0.56109940853151
outer loop
vertex 6.69906300316479 6.39100763441668 16.3498584404167
vertex 6.60006529125866 2.60899236558342 16.4959024368683
vertex 6.69906300316487 2.60899236558342 16.3498584404167
endloop
endfacet
facet normal 0.827748424187923 2.19717712795892e-014 0.56109940853151
outer loop
vertex 6.60006529125866 2.60899236558342 16.4959024368683
vertex 6.69906300316479 6.39100763441668 16.3498584404167
vertex 6.60006529125858 6.39100763441668 16.4959024368683
endloop
endfacet
facet normal 0.997832409973536 -4.84641188480851e-005 0.0658063770286311
outer loop
vertex 6.88113093931125 2.60899236558339 15.6760284490195
vertex 6.86970468707538 6.39100763441666 15.8520933138337
vertex 6.86915675883741 2.60899236558337 15.8548309889236
endloop
endfacet
facet normal 0.997832409973536 -4.84641188480851e-005 0.0658063770286311
outer loop
vertex 6.86970468707538 6.39100763441666 15.8520933138337
vertex 6.88113093931125 2.60899236558339 15.6760284490195
vertex 6.88113093931117 6.39100763441666 15.6760284490194
endloop
endfacet
facet normal 1.09005987293053e-014 -1.0 3.43753081207851e-015
outer loop
vertex 6.88113093931125 2.60899236558339 15.6760284490195
vertex 5.69999999999993 2.60899236558339 15.5000000000001
vertex 6.86915675883741 2.60899236558337 15.5
endloop
endfacet
facet normal 1.09005987293053e-014 -1.0 3.43753081207851e-015
outer loop
vertex 5.69999999999993 2.60899236558339 15.5000000000001
vertex 5.09999999999989 2.60899236558337 17.0000000000001
vertex 5.09999999999993 2.60899236558339 15.5000000000001
endloop
endfacet
facet normal 1.09005987293053e-014 -1.0 3.43753081207851e-015
outer loop
vertex 5.09999999999989 2.60899236558337 17.0000000000001
vertex 5.69999999999993 2.60899236558339 15.5000000000001
vertex 6.88113093931125 2.60899236558339 15.6760284490195
endloop
endfacet
facet normal 1.09005987293053e-014 -1.0 3.43753081207851e-015
outer loop
vertex 5.09999999999989 2.60899236558337 17.0000000000001
vertex 6.88113093931125 2.60899236558339 15.6760284490195
vertex 6.86915675883741 2.60899236558337 15.8548309889236
endloop
endfacet
facet normal 1.09005987293053e-014 -1.0 3.43753081207851e-015
outer loop
vertex 5.09999999999989 2.60899236558337 17.0000000000001
vertex 6.86915675883741 2.60899236558337 15.8548309889236
vertex 6.83507899559786 2.60899236558339 16.0250975257822
endloop
endfacet
facet normal 1.09005987293053e-014 -1.0 3.43753081207851e-015
outer loop
vertex 5.09999999999989 2.60899236558337 17.0000000000001
vertex 6.83507899559786 2.60899236558339 16.0250975257822
vertex 6.7778629480367 2.60899236558342 16.1919978546126
endloop
endfacet
facet normal 1.09005987293053e-014 -1.0 3.43753081207851e-015
outer loop
vertex 5.09999999999989 2.60899236558337 17.0000000000001
vertex 6.7778629480367 2.60899236558342 16.1919978546126
vertex 6.69906300316487 2.60899236558342 16.3498584404167
endloop
endfacet
facet normal 1.09005987293053e-014 -1.0 3.43753081207851e-015
outer loop
vertex 5.09999999999989 2.60899236558337 17.0000000000001
vertex 6.69906300316487 2.60899236558342 16.3498584404167
vertex 6.60006529125866 2.60899236558342 16.4959024368683
endloop
endfacet
facet normal 1.09005987293053e-014 -1.0 3.43753081207851e-015
outer loop
vertex 5.09999999999989 2.60899236558337 17.0000000000001
vertex 6.60006529125866 2.60899236558342 16.4959024368683
vertex 6.48261123137598 2.60899236558342 16.6275608573331
endloop
endfacet
facet normal 1.09005987293053e-014 -1.0 3.43753081207851e-015
outer loop
vertex 5.09999999999989 2.60899236558337 17.0000000000001
vertex 6.48261123137598 2.60899236558342 16.6275608573331
vertex 6.34876689892772 2.60899236558342 16.7425177646232
endloop
endfacet
facet normal 1.09005987293053e-014 -1.0 3.43753081207851e-015
outer loop
vertex 5.09999999999989 2.60899236558337 17.0000000000001
vertex 6.34876689892772 2.60899236558342 16.7425177646232
vertex 6.20088668238235 2.60899236558339 16.8387510094854
endloop
endfacet
facet normal 1.09005987293053e-014 -1.0 3.43753081207851e-015
outer loop
vertex 5.09999999999989 2.60899236558337 17.0000000000001
vertex 6.20088668238235 2.60899236558339 16.8387510094854
vertex 6.0415718684001 2.60899236558339 16.9145678012141
endloop
endfacet
facet normal 1.09005987293053e-014 -1.0 3.43753081207851e-015
outer loop
vertex 5.09999999999989 2.60899236558337 17.0000000000001
vertex 6.0415718684001 2.60899236558339 16.9145678012141
vertex 5.87362488390505 2.60899236558337 16.9686344846823
endloop
endfacet
facet normal 1.09005987293053e-014 -1.0 3.43753081207851e-015
outer loop
vertex 5.09999999999989 2.60899236558337 17.0000000000001
vertex 5.87362488390505 2.60899236558337 16.9686344846823
vertex 5.69999999999989 2.60899236558337 17.0000000000001
endloop
endfacet
facet normal 0.177773523794269 -5.97168036520851e-015 0.98407142740645
outer loop
vertex 5.87362488390505 2.60899236558337 16.9686344846823
vertex 5.69999999999991 6.39100763441666 17.0000000000002
vertex 5.69999999999989 2.60899236558337 17.0000000000001
endloop
endfacet
facet normal 0.177773523794269 -5.97168036520851e-015 0.98407142740645
outer loop
vertex 5.69999999999991 6.39100763441666 17.0000000000002
vertex 5.87362488390505 2.60899236558337 16.9686344846823
vertex 5.87362488390501 6.39100763441663 16.9686344846823
endloop
endfacet
facet normal -7.23400914824464e-015 1.0 -6.37294778694486e-015
outer loop
vertex 5.09999999999991 6.39100763441666 17.0000000000001
vertex 5.69999999999993 6.39100763441666 15.5000000000002
vertex 5.09999999999993 6.39100763441666 15.5000000000002
endloop
endfacet
facet normal -7.23400914824464e-015 1.0 -6.37294778694486e-015
outer loop
vertex 5.69999999999993 6.39100763441666 15.5000000000002
vertex 5.09999999999991 6.39100763441666 17.0000000000001
vertex 6.88113093931117 6.39100763441666 15.6760284490194
endloop
endfacet
facet normal -7.23400914824464e-015 1.0 -6.37294778694486e-015
outer loop
vertex 6.88113093931117 6.39100763441666 15.6760284490194
vertex 5.09999999999991 6.39100763441666 17.0000000000001
vertex 6.86970468707538 6.39100763441666 15.8520933138337
endloop
endfacet
facet normal -7.23400914824464e-015 1.0 -6.37294778694486e-015
outer loop
vertex 6.86970468707538 6.39100763441666 15.8520933138337
vertex 5.09999999999991 6.39100763441666 17.0000000000001
vertex 6.83507899559777 6.39100763441666 16.0250975257822
endloop
endfacet
facet normal -7.23400914824464e-015 1.0 -6.37294778694486e-015
outer loop
vertex 6.83507899559777 6.39100763441666 16.0250975257822
vertex 5.09999999999991 6.39100763441666 17.0000000000001
vertex 6.77786294803662 6.39100763441668 16.1919978546126
endloop
endfacet
facet normal -7.23400914824464e-015 1.0 -6.37294778694486e-015
outer loop
vertex 6.77786294803662 6.39100763441668 16.1919978546126
vertex 5.09999999999991 6.39100763441666 17.0000000000001
vertex 6.69906300316479 6.39100763441668 16.3498584404167
endloop
endfacet
facet normal -7.23400914824464e-015 1.0 -6.37294778694486e-015
outer loop
vertex 6.69906300316479 6.39100763441668 16.3498584404167
vertex 5.09999999999991 6.39100763441666 17.0000000000001
vertex 6.60006529125858 6.39100763441668 16.4959024368683
endloop
endfacet
facet normal -7.23400914824464e-015 1.0 -6.37294778694486e-015
outer loop
vertex 6.60006529125858 6.39100763441668 16.4959024368683
vertex 5.09999999999991 6.39100763441666 17.0000000000001
vertex 6.48261123137589 6.39100763441668 16.6275608573331
endloop
endfacet
facet normal -7.23400914824464e-015 1.0 -6.37294778694486e-015
outer loop
vertex 6.48261123137589 6.39100763441668 16.6275608573331
vertex 5.09999999999991 6.39100763441666 17.0000000000001
vertex 6.34876689892764 6.39100763441668 16.7425177646232
endloop
endfacet
facet normal -7.23400914824464e-015 1.0 -6.37294778694486e-015
outer loop
vertex 6.34876689892764 6.39100763441668 16.7425177646232
vertex 5.09999999999991 6.39100763441666 17.0000000000001
vertex 6.20088668238227 6.39100763441666 16.8387510094854
endloop
endfacet
facet normal -7.23400914824464e-015 1.0 -6.37294778694486e-015
outer loop
vertex 6.20088668238227 6.39100763441666 16.8387510094854
vertex 5.09999999999991 6.39100763441666 17.0000000000001
vertex 6.04157186840001 6.39100763441666 16.914567801214
endloop
endfacet
facet normal -7.23400914824464e-015 1.0 -6.37294778694486e-015
outer loop
vertex 6.04157186840001 6.39100763441666 16.914567801214
vertex 5.09999999999991 6.39100763441666 17.0000000000001
vertex 5.87362488390501 6.39100763441663 16.9686344846823
endloop
endfacet
facet normal -7.23400914824464e-015 1.0 -6.37294778694486e-015
outer loop
vertex 5.87362488390501 6.39100763441663 16.9686344846823
vertex 5.09999999999991 6.39100763441666 17.0000000000001
vertex 5.69999999999991 6.39100763441666 17.0000000000002
endloop
endfacet
facet normal -7.23400914824464e-015 1.0 -6.37294778694486e-015
outer loop
vertex 6.88113093931117 6.39100763441666 15.6760284490194
vertex 6.86915675883749 6.39100763441663 15.5
vertex 5.69999999999993 6.39100763441666 15.5000000000002
endloop
endfacet
facet normal -1.98833428360259e-015 -1.0 -1.04121839355617e-014
outer loop
vertex 5.70000000000041 2.60899236558353 2.50000000000026
vertex 5.09999999999964 2.60899236558351 11.0000000000001
vertex 5.10000000000041 2.60899236558353 2.50000000000024
endloop
endfacet
facet normal -1.98833428360259e-015 -1.0 -1.04121839355617e-014
outer loop
vertex 5.09999999999964 2.60899236558351 11.0000000000001
vertex 5.70000000000041 2.60899236558353 2.50000000000026
vertex 5.69999999999993 2.60899236558339 15.5000000000001
endloop
endfacet
facet normal -1.98833428360259e-015 -1.0 -1.04121839355617e-014
outer loop
vertex 5.09999999999964 2.60899236558351 11.0000000000001
vertex 5.69999999999993 2.60899236558339 15.5000000000001
vertex 5.09999999999993 2.60899236558339 15.5000000000001
endloop
endfacet
facet normal -1.98833428360181e-015 1.0 1.04121839355615e-014
outer loop
vertex 3.29999999999992 6.39100763441652 15.5000000000001
vertex 4.1000000000004 6.39100763441666 2.50000000000028
vertex 3.3000000000004 6.39100763441666 2.50000000000025
endloop
endfacet
facet normal -1.98833428360181e-015 1.0 1.04121839355615e-014
outer loop
vertex 4.1000000000004 6.39100763441666 2.50000000000028
vertex 3.29999999999992 6.39100763441652 15.5000000000001
vertex 4.09999999999969 6.391007634417 11.0000000000002
endloop
endfacet
facet normal -1.98833428360181e-015 1.0 1.04121839355615e-014
outer loop
vertex 4.09999999999969 6.391007634417 11.0000000000002
vertex 3.29999999999992 6.39100763441652 15.5000000000001
vertex 4.09999999999991 6.39100763441652 15.5000000000001
endloop
endfacet
facet normal -3.52495810318488e-014 -1.93862592651202e-014 1.0
outer loop
vertex 3.29999999999996 2.60899236558353 17.0000000000001
vertex 4.09999999999994 6.39100763441686 17.0000000000002
vertex 3.29999999999994 6.39100763441686 17.0000000000002
endloop
endfacet
facet normal -3.52495810318488e-014 -1.93862592651202e-014 1.0
outer loop
vertex 4.09999999999994 6.39100763441686 17.0000000000002
vertex 3.29999999999996 2.60899236558353 17.0000000000001
vertex 4.09999999999996 2.60899236558353 17.0000000000001
endloop
endfacet
facet normal 1.98833428360259e-015 1.0 1.04121839355617e-014
outer loop
vertex 5.09999999999966 6.39100763441679 11.0000000000001
vertex 5.70000000000041 6.39100763441679 2.50000000000036
vertex 5.10000000000041 6.39100763441679 2.50000000000034
endloop
endfacet
facet normal 1.98833428360259e-015 1.0 1.04121839355617e-014
outer loop
vertex 5.70000000000041 6.39100763441679 2.50000000000036
vertex 5.09999999999966 6.39100763441679 11.0000000000001
vertex 5.69999999999993 6.39100763441666 15.5000000000002
endloop
endfacet
facet normal 1.98833428360259e-015 1.0 1.04121839355617e-014
outer loop
vertex 5.69999999999993 6.39100763441666 15.5000000000002
vertex 5.09999999999966 6.39100763441679 11.0000000000001
vertex 5.09999999999993 6.39100763441666 15.5000000000002
endloop
endfacet
facet normal 1.98833428360181e-015 -1.0 -1.04121839355615e-014
outer loop
vertex 4.1000000000004 2.60899236558371 2.50000000000028
vertex 3.29999999999992 2.60899236558357 15.5000000000001
vertex 3.3000000000004 2.60899236558371 2.50000000000025
endloop
endfacet
facet normal 1.98833428360181e-015 -1.0 -1.04121839355615e-014
outer loop
vertex 3.29999999999992 2.60899236558357 15.5000000000001
vertex 4.1000000000004 2.60899236558371 2.50000000000028
vertex 4.09999999999971 2.60899236558367 11.0000000000001
endloop
endfacet
facet normal 1.98833428360181e-015 -1.0 -1.04121839355615e-014
outer loop
vertex 3.29999999999992 2.60899236558357 15.5000000000001
vertex 4.09999999999971 2.60899236558367 11.0000000000001
vertex 4.09999999999991 2.60899236558357 15.5000000000001
endloop
endfacet
facet normal 0.980553581781023 2.30421615008701e-014 0.196251556061111
outer loop
vertex 6.86970468707538 6.39100763441666 15.8520933138337
vertex 6.83507899559786 2.60899236558339 16.0250975257822
vertex 6.86915675883741 2.60899236558337 15.8548309889236
endloop
endfacet
facet normal 0.980553581781023 2.30421615008701e-014 0.196251556061111
outer loop
vertex 6.83507899559786 2.60899236558339 16.0250975257822
vertex 6.86970468707538 6.39100763441666 15.8520933138337
vertex 6.83507899559777 6.39100763441666 16.0250975257822
endloop
endfacet
facet normal -1.0 5.9650028508054e-015 4.22994972382171e-014
outer loop
vertex 5.09999999999991 6.39100763441666 17.0000000000001
vertex 5.09999999999993 2.60899236558339 15.5000000000001
vertex 5.09999999999989 2.60899236558337 17.0000000000001
endloop
endfacet
facet normal -1.0 5.9650028508054e-015 4.22994972382171e-014
outer loop
vertex 5.09999999999993 2.60899236558339 15.5000000000001
vertex 5.09999999999991 6.39100763441666 17.0000000000001
vertex 5.09999999999964 2.60899236558351 11.0000000000001
endloop
endfacet
facet normal -1.0 5.9650028508054e-015 4.22994972382171e-014
outer loop
vertex 5.09999999999964 2.60899236558351 11.0000000000001
vertex 5.09999999999991 6.39100763441666 17.0000000000001
vertex 5.09999999999993 6.39100763441666 15.5000000000002
endloop
endfacet
facet normal -1.0 5.9650028508054e-015 4.22994972382171e-014
outer loop
vertex 5.09999999999964 2.60899236558351 11.0000000000001
vertex 5.09999999999993 6.39100763441666 15.5000000000002
vertex 5.09999999999966 6.39100763441679 11.0000000000001
endloop
endfacet
facet normal 0.130526192220057 -0.99144486137381 -1.23521629876465e-014
outer loop
vertex 5.66468570296137 0.153333781699252 4.51194637207664e-014
vertex 4.49999999999979 0.0 2.50000000000013
vertex 4.50000000000004 6.76791955811495e-014 0.0
endloop
endfacet
facet normal 0.130526192220057 -0.99144486137381 -1.23521629876465e-014
outer loop
vertex 4.49999999999979 0.0 2.50000000000013
vertex 5.66468570296137 0.153333781699252 4.51194637207664e-014
vertex 5.66468570296124 0.153333781699207 2.50000000000007
endloop
endfacet
facet normal 0.382683432365068 -0.923879532511296 -3.01358583229869e-014
outer loop
vertex 6.74999999999986 0.602885682970086 1.46638257092491e-013
vertex 5.66468570296124 0.153333781699207 2.50000000000007
vertex 5.66468570296137 0.153333781699252 4.51194637207664e-014
endloop
endfacet
facet normal 0.382683432365068 -0.923879532511296 -3.01358583229869e-014
outer loop
vertex 5.66468570296124 0.153333781699207 2.50000000000007
vertex 6.74999999999986 0.602885682970086 1.46638257092491e-013
vertex 6.7500000000002 0.602885682970063 2.50000000000014
endloop
endfacet
facet normal -1.72957944262941e-013 -1.0 -1.11763809216638e-014
outer loop
vertex 5.09999999999964 2.60899236558351 11.0000000000001
vertex 4.1000000000004 2.60899236558371 2.50000000000028
vertex 5.10000000000041 2.60899236558353 2.50000000000024
endloop
endfacet
facet normal -1.72957944262941e-013 -1.0 -1.11763809216638e-014
outer loop
vertex 4.1000000000004 2.60899236558371 2.50000000000028
vertex 5.09999999999964 2.60899236558351 11.0000000000001
vertex 4.09999999999971 2.60899236558367 11.0000000000001
endloop
endfacet
facet normal 4.2299497238217e-014 -1.93862592651201e-014 1.0
outer loop
vertex 4.09999999999971 2.60899236558367 11.0000000000001
vertex 5.09999999999966 6.39100763441679 11.0000000000001
vertex 4.09999999999969 6.391007634417 11.0000000000002
endloop
endfacet
facet normal 4.2299497238217e-014 -1.93862592651201e-014 1.0
outer loop
vertex 5.09999999999966 6.39100763441679 11.0000000000001
vertex 4.09999999999971 2.60899236558367 11.0000000000001
vertex 5.09999999999964 2.60899236558351 11.0000000000001
endloop
endfacet
facet normal -2.25597318603922e-014 1.0 2.66104307658435e-015
outer loop
vertex 4.09999999999969 6.391007634417 11.0000000000002
vertex 5.10000000000041 6.39100763441679 2.50000000000034
vertex 4.1000000000004 6.39100763441666 2.50000000000028
endloop
endfacet
facet normal -2.25597318603922e-014 1.0 2.66104307658435e-015
outer loop
vertex 5.10000000000041 6.39100763441679 2.50000000000034
vertex 4.09999999999969 6.391007634417 11.0000000000002
vertex 5.09999999999966 6.39100763441679 11.0000000000001
endloop
endfacet
facet normal 0.99144486137381 -0.130526192220051 3.87352614306931e-014
outer loop
vertex 9.00000000000005 4.49999999999999 9.02389274415327e-014
vertex 8.84666621830078 3.33531429703877 2.5000000000001
vertex 8.84666621830091 3.33531429703868 1.18438592267012e-013
endloop
endfacet
facet normal 0.99144486137381 -0.130526192220051 3.87352614306931e-014
outer loop
vertex 8.84666621830078 3.33531429703877 2.5000000000001
vertex 9.00000000000005 4.49999999999999 9.02389274415327e-014
vertex 9.00000000000001 4.50000000000001 2.50000000000006
endloop
endfacet
facet normal -0.130526192220061 -0.991444861373809 -2.23793027101686e-014
outer loop
vertex 4.49999999999979 0.0 2.50000000000013
vertex 3.33531429703886 0.153333781699207 4.79394302033143e-014
vertex 4.50000000000004 6.76791955811495e-014 0.0
endloop
endfacet
facet normal -0.130526192220061 -0.991444861373809 -2.23793027101686e-014
outer loop
vertex 3.33531429703886 0.153333781699207 4.79394302033143e-014
vertex 4.49999999999979 0.0 2.50000000000013
vertex 3.33531429703868 0.153333781699207 2.50000000000009
endloop
endfacet
endsolid hinge_pin
